  0
SECTION
  2
HEADER
  9
$ACADVER
  1
AC1009
  9
$EXTMIN
 10
0.0
 20
0.0
 30
0.0
  9
$EXTMAX
 10
100.0
 20
100.0
 30
0.0
  9
$INSBASE
 10
0.0
 20
0.0
 30
0.0
  0
ENDSEC
  0
SECTION
  2
TABLES
  0
TABLE
  2
LTYPE
 70
19
  0
LTYPE
  2
PHANTOM
 70
0
  3
Phantom ______  __  __  ______  __  __  ______
 72
65
 73
6
 40
2.5
 49
1.25
 49
-0.25
 49
0.25
 49
-0.25
 49
0.25
 49
-0.25
  0
LTYPE
  2
DOT2
 70
0
  3
Dot (.5) . . . . . . . . . . . . . . . . . . . 
 72
65
 73
2
 40
0.1
 49
0.0
 49
-0.1
  0
LTYPE
  2
DIVIDE
 70
0
  3
Divide __ . . __ . . __ . . __ . . __ . . __
 72
65
 73
6
 40
1.6
 49
1.0
 49
-0.2
 49
0.0
 49
-0.2
 49
0.0
 49
-0.2
  0
LTYPE
  2
DIVIDEX2
 70
0
  3
Divide (2x) ____  . .  ____  . .  ____  . .  ____
 72
65
 73
6
 40
2.6
 49
2.0
 49
-0.2
 49
0.0
 49
-0.2
 49
0.0
 49
-0.2
  0
LTYPE
  2
CENTER
 70
0
  3
Center ____ _ ____ _ ____ _ ____ _ ____ _ ____
 72
65
 73
4
 40
2.0
 49
1.25
 49
-0.25
 49
0.25
 49
-0.25
  0
LTYPE
  2
DASHDOT
 70
0
  3
Dash dot __ . __ . __ . __ . __ . __ . __ . __
 72
65
 73
4
 40
1.4
 49
1.0
 49
-0.2
 49
0.0
 49
-0.2
  0
LTYPE
  2
CENTERX2
 70
0
  3
Center (2x) ________  __  ________  __  ________
 72
65
 73
4
 40
3.5
 49
2.5
 49
-0.25
 49
0.5
 49
-0.25
  0
LTYPE
  2
PHANTOMX2
 70
0
  3
Phantom (2x)____________    ____    ____    ____________
 72
65
 73
6
 40
4.25
 49
2.5
 49
-0.25
 49
0.5
 49
-0.25
 49
0.5
 49
-0.25
  0
LTYPE
  2
CONTINUOUS
 70
0
  3
Solid
 72
65
 73
0
 40
0.0
  0
LTYPE
  2
PHANTOM2
 70
0
  3
Phantom (.5x) ___ _ _ ___ _ _ ___ _ _ ___ _ _ ___
 72
65
 73
6
 40
1.25
 49
0.625
 49
-0.125
 49
0.125
 49
-0.125
 49
0.125
 49
-0.125
  0
LTYPE
  2
DASHED
 70
0
  3
Dashed __ __ __ __ __ __ __ __ __ __ __ __ __ _
 72
65
 73
2
 40
0.6
 49
0.5
 49
-0.1
  0
LTYPE
  2
DASHED2
 70
0
  3
Dashed (.5x) _ _ _ _ _ _ _ _ _ _ _ _ _ _
 72
65
 73
2
 40
0.3
 49
0.25
 49
-0.05
  0
LTYPE
  2
DASHDOT2
 70
0
  3
Dash dot (.5x) _ . _ . _ . _ . _ . _ . _ . _
 72
65
 73
4
 40
0.7
 49
0.5
 49
-0.1
 49
0.0
 49
-0.1
  0
LTYPE
  2
DOTX2
 70
0
  3
Dot (2x) .    .    .    .    .    .    .    . 
 72
65
 73
2
 40
0.4
 49
0.0
 49
-0.4
  0
LTYPE
  2
DIVIDE2
 70
0
  3
Divide(.5x) _ . _ . _ . _ . _ . _ . _ . _
 72
65
 73
6
 40
0.8
 49
0.5
 49
-0.1
 49
0.0
 49
-0.1
 49
0.0
 49
-0.1
  0
LTYPE
  2
CENTER2
 70
0
  3
Center (.5x) ____ _ ____ _ ____ _ ____ _ ____
 72
65
 73
4
 40
1.0
 49
0.625
 49
-0.125
 49
0.125
 49
-0.125
  0
LTYPE
  2
DASHDOTX2
 70
0
  3
Dash dot (2x) ____  .  ____  .  ____  .  ____
 72
65
 73
4
 40
2.4
 49
2.0
 49
-0.2
 49
0.0
 49
-0.2
  0
LTYPE
  2
DOT
 70
0
  3
Dot .  .  .  .  .  .  .  .  .  .  .  .  .  .  .  .
 72
65
 73
2
 40
0.2
 49
0.0
 49
-0.2
  0
LTYPE
  2
DASHEDX2
 70
0
  3
Dashed (2x) ____  ____  ____  ____  ____  ____
 72
65
 73
2
 40
1.2
 49
1.0
 49
-0.2
  0
ENDTAB
  0
TABLE
  2
LAYER
 70
5
  0
LAYER
  2
VIEWPORTS
 70
0
 62
7
  6
CONTINUOUS
  0
LAYER
  2
TABLEGRID
 70
0
 62
1
  6
CONTINUOUS
  0
LAYER
  2
TABLECONTENT
 70
0
 62
1
  6
CONTINUOUS
  0
LAYER
  2
DIMENSIONS
 70
0
 62
1
  6
CONTINUOUS
  0
LAYER
  2
TABLEBACKGROUND
 70
0
 62
1
  6
CONTINUOUS
  0
ENDTAB
  0
TABLE
  2
STYLE
 70
12
  0
STYLE
  2
TIMES
 70
0
 40
0.0
 41
1.0
 42
1.0
 50
0.0
 71
0
  3
times.ttf
  4

  0
STYLE
  2
ARIAL
 70
0
 40
0.0
 41
1.0
 42
1.0
 50
0.0
 71
0
  3
arial.ttf
  4

  0
STYLE
  2
TIMES_BOLD
 70
0
 40
0.0
 41
1.0
 42
1.0
 50
0.0
 71
0
  3
timesbd.ttf
  4

  0
STYLE
  2
ARIAL_BLACK
 70
0
 40
0.0
 41
1.0
 42
1.0
 50
0.0
 71
0
  3
ariblk.ttf
  4

  0
STYLE
  2
TIMES_ITALIC
 70
0
 40
0.0
 41
1.0
 42
1.0
 50
0.0
 71
0
  3
timesi.ttf
  4

  0
STYLE
  2
ISOCPEUR
 70
0
 40
0.0
 41
1.0
 42
1.0
 50
0.0
 71
0
  3
isocpeur.ttf
  4

  0
STYLE
  2
ARIAL_BOLD
 70
0
 40
0.0
 41
1.0
 42
1.0
 50
0.0
 71
0
  3
arialbd.ttf
  4

  0
STYLE
  2
ARIAL_ITALIC
 70
0
 40
0.0
 41
1.0
 42
1.0
 50
0.0
 71
0
  3
ariali.ttf
  4

  0
STYLE
  2
ARIAL_BOLD_ITALIC
 70
0
 40
0.0
 41
1.0
 42
1.0
 50
0.0
 71
0
  3
arialbi.ttf
  4

  0
STYLE
  2
TIMES_BOLD_ITALIC
 70
0
 40
0.0
 41
1.0
 42
1.0
 50
0.0
 71
0
  3
timesbi.ttf
  4

  0
STYLE
  2
ISOCPEUR_ITALIC
 70
0
 40
0.0
 41
1.0
 42
1.0
 50
0.0
 71
0
  3
isocpeui.ttf
  4

  0
STYLE
  2
STANDARD
 70
0
 40
0.0
 41
1.0
 42
1.0
 50
0.0
 71
0
  3
arial.ttf
  4

  0
ENDTAB
  0
TABLE
  2
VIEW
 70
0
  0
ENDTAB
  0
TABLE
  2
APPID
 70
1
  0
APPID
  2
DXFWRITE
 70
0
  0
ENDTAB
  0
TABLE
  2
VPORT
 70
0
  0
ENDTAB
  0
TABLE
  2
UCS
 70
0
  0
ENDTAB
  0
ENDSEC
  0
SECTION
  2
BLOCKS
  0
ENDSEC
  0
SECTION
  2
ENTITIES
  0
VIEWPORT
  8
VIEWPORTS
 67
1
 10
0.0
 20
0.0
 30
0.0
 40
1.0
 41
1.0
 68
1
 69
1
1001
ACAD
1000
MVIEW
1002
{
1070
16
1010
0.0
1020
0.0
1030
0.0
1010
0.0
1020
0.0
1030
0.0
1040
0.0
1040
1.0
1040
0.0
1040
0.0
1040
50.0
1040
0.0
1040
0.0
1070
0
1070
100
1070
1
1070
3
1070
0
1070
0
1070
0
1070
0
1040
0.0
1040
0.0
1040
0.0
1040
0.1
1040
0.1
1040
0.1
1040
0.1
1070
0
1002
{
1002
}
1002
}
  0
LINE
 62
1
  8
0
 10
-0.467511036965
 20
57.6645171166
 30
0.0
 11
-0.0883232491514
 21
56.7162085772
 31
0.0
  0
ARC
 62
1
  8
0
 10
0.375937988994
 20
56.9018466734
 30
0.0
 40
0.5
 50
-158.205655082
 51
21.7943449178
  0
LINE
 62
1
  8
0
 10
0.84019922714
 20
57.0874847696
 30
0.0
 11
0.461011439326
 21
58.035793309
 31
0.0
  0
ARC
 62
1
  8
0
 10
-0.00324979881951
 20
57.8501552128
 30
0.0
 40
0.5
 50
21.7943449178
 51
-158.205655082
  0
LINE
 62
1
  8
0
 10
-0.467511036965
 20
57.6645171166
 30
0.0
 11
-0.0883232491514
 21
56.7162085772
 31
0.0
  0
LINE
 62
1
  8
0
 10
0.0557824511167
 20
56.5177888241
 30
0.0
 11
0.624564724962
 21
56.043644642
 31
0.0
  0
ARC
 62
1
  8
0
 10
0.944720262839
 20
56.4277024913
 30
0.0
 40
0.5
 50
-129.815019547
 51
50.1849804528
  0
LINE
 62
1
  8
0
 10
1.26487580072
 20
56.8117603405
 30
0.0
 11
0.696093526871
 21
57.2859045226
 31
0.0
  0
ARC
 62
1
  8
0
 10
0.375937988994
 20
56.9018466734
 30
0.0
 40
0.5
 50
50.1849804528
 51
-129.815019547
  0
LINE
 62
1
  8
0
 10
0.0557824511167
 20
56.5177888241
 30
0.0
 11
0.624564724962
 21
56.043644642
 31
0.0
  0
LINE
 62
1
  8
0
 10
0.644653639528
 20
56.0277524674
 30
0.0
 11
1.4030291455
 21
55.4587734358
 31
0.0
  0
ARC
 62
1
  8
0
 10
1.70309576882
 20
55.8587234596
 30
0.0
 40
0.5
 50
-126.879441328
 51
53.1205586716
  0
LINE
 62
1
  8
0
 10
2.00316239213
 20
56.2586734835
 30
0.0
 11
1.24478688615
 21
56.8276525151
 31
0.0
  0
ARC
 62
1
  8
0
 10
0.944720262839
 20
56.4277024913
 30
0.0
 40
0.5
 50
53.1205586716
 51
-126.879441328
  0
LINE
 62
1
  8
0
 10
0.644653639528
 20
56.0277524674
 30
0.0
 11
1.4030291455
 21
55.4587734358
 31
0.0
  0
LINE
 62
1
  8
0
 10
1.41240768675
 20
55.451906008
 30
0.0
 11
2.07598562295
 21
54.9777518221
 31
0.0
  0
ARC
 62
1
  8
0
 10
2.36667370502
 20
55.3845692737
 30
0.0
 40
0.5
 50
-125.547393014
 51
54.4526069861
  0
LINE
 62
1
  8
0
 10
2.65736178708
 20
55.7913867253
 30
0.0
 11
1.99378385088
 21
56.2655409112
 31
0.0
  0
ARC
 62
1
  8
0
 10
1.70309576882
 20
55.8587234596
 30
0.0
 40
0.5
 50
54.4526069861
 51
-125.547393014
  0
LINE
 62
1
  8
0
 10
1.41240768675
 20
55.451906008
 30
0.0
 11
2.07598562295
 21
54.9777518221
 31
0.0
  0
LINE
 62
1
  8
0
 10
1.98250868442
 20
55.0645423421
 30
0.0
 11
2.45649415791
 21
54.4955632307
 31
0.0
  0
ARC
 62
1
  8
0
 10
2.84065917851
 20
54.8155901623
 30
0.0
 40
0.5
 50
-140.20416394
 51
39.79583606
  0
LINE
 62
1
  8
0
 10
3.22482419911
 20
55.1356170939
 30
0.0
 11
2.75083872561
 21
55.7045962053
 31
0.0
  0
ARC
 62
1
  8
0
 10
2.36667370502
 20
55.3845692737
 30
0.0
 40
0.5
 50
39.79583606
 51
-140.20416394
  0
LINE
 62
1
  8
0
 10
1.98250868442
 20
55.0645423421
 30
0.0
 11
2.45649415791
 21
54.4955632307
 31
0.0
  0
LINE
 62
1
  8
0
 10
2.35557795659
 20
54.6943622441
 30
0.0
 11
2.54517132815
 21
53.9357235925
 31
0.0
  0
ARC
 62
1
  8
0
 10
3.03025255008
 20
54.0569515107
 30
0.0
 40
0.5
 50
-165.968468739
 51
14.0315312606
  0
LINE
 62
1
  8
0
 10
3.515333772
 20
54.1781794288
 30
0.0
 11
3.32574040044
 21
54.9368180804
 31
0.0
  0
ARC
 62
1
  8
0
 10
2.84065917851
 20
54.8155901623
 30
0.0
 40
0.5
 50
14.0315312606
 51
-165.968468739
  0
LINE
 62
1
  8
0
 10
2.35557795659
 20
54.6943622441
 30
0.0
 11
2.54517132815
 21
53.9357235925
 31
0.0
  0
LINE
 62
1
  8
0
 10
2.53025255008
 20
54.0569514867
 30
0.0
 11
2.53025261365
 21
52.7293336134
 31
0.0
  0
ARC
 62
1
  8
0
 10
3.03025261365
 20
52.7293336373
 30
0.0
 40
0.5
 50
-179.999997256
 51
2.74368992397e-06
  0
LINE
 62
1
  8
0
 10
3.53025261365
 20
52.7293336613
 30
0.0
 11
3.53025255008
 21
54.0569515346
 31
0.0
  0
ARC
 62
1
  8
0
 10
3.03025255008
 20
54.0569515107
 30
0.0
 40
0.5
 50
2.74368992397e-06
 51
-179.999997256
  0
LINE
 62
1
  8
0
 10
2.53025255008
 20
54.0569514867
 30
0.0
 11
2.53025261365
 21
52.7293336134
 31
0.0
  0
LINE
 62
1
  8
0
 10
2.54517130562
 20
52.8505612109
 30
0.0
 11
2.07118676193
 21
50.9539543939
 31
0.0
  0
ARC
 62
1
  8
0
 10
2.55626806997
 20
50.8327268203
 30
0.0
 40
0.5
 50
-194.031490562
 51
-14.0314905621
  0
LINE
 62
1
  8
0
 10
3.041349378
 20
50.7114992468
 30
0.0
 11
3.51533392169
 21
52.6081060637
 31
0.0
  0
ARC
 62
1
  8
0
 10
3.03025261365
 20
52.7293336373
 30
0.0
 40
0.5
 50
-14.0314905621
 51
-194.031490562
  0
LINE
 62
1
  8
0
 10
2.54517130562
 20
52.8505612109
 30
0.0
 11
2.07118676193
 21
50.9539543939
 31
0.0
  0
LINE
 62
1
  8
0
 10
2.07118694129
 20
50.9539551116
 30
0.0
 11
1.78679591567
 21
49.8159969811
 31
0.0
  0
ARC
 62
1
  8
0
 10
2.27187704434
 20
49.6947686898
 30
0.0
 40
0.5
 50
-194.031575334
 51
-14.0315753337
  0
LINE
 62
1
  8
0
 10
2.75695817301
 20
49.5735403986
 30
0.0
 11
3.04134919864
 21
50.7114985291
 31
0.0
  0
ARC
 62
1
  8
0
 10
2.55626806997
 20
50.8327268203
 30
0.0
 40
0.5
 50
-14.0315753337
 51
-194.031575334
  0
LINE
 62
1
  8
0
 10
2.07118694129
 20
50.9539551116
 30
0.0
 11
1.78679591567
 21
49.8159969811
 31
0.0
  0
LINE
 62
1
  8
0
 10
1.78679582983
 20
49.8159966376
 30
0.0
 11
1.59720238516
 21
49.0573578908
 31
0.0
  0
ARC
 62
1
  8
0
 10
2.08228359967
 20
48.936129943
 30
0.0
 40
0.5
 50
-194.031534765
 51
-14.0315347653
  0
LINE
 62
1
  8
0
 10
2.56736481418
 20
48.8149019952
 30
0.0
 11
2.75695825885
 21
49.573540742
 31
0.0
  0
ARC
 62
1
  8
0
 10
2.27187704434
 20
49.6947686898
 30
0.0
 40
0.5
 50
-14.0315347653
 51
-194.031534765
  0
LINE
 62
1
  8
0
 10
1.78679582983
 20
49.8159966376
 30
0.0
 11
1.59720238516
 21
49.0573578908
 31
0.0
  0
LINE
 62
1
  8
0
 10
1.58228359967
 20
48.9361299115
 30
0.0
 11
1.58228364741
 21
48.1774912284
 31
0.0
  0
ARC
 62
1
  8
0
 10
2.08228364741
 20
48.1774912598
 30
0.0
 40
0.5
 50
-179.999996394
 51
3.60580692848e-06
  0
LINE
 62
1
  8
0
 10
2.58228364741
 20
48.1774912913
 30
0.0
 11
2.58228359967
 21
48.9361299745
 31
0.0
  0
ARC
 62
1
  8
0
 10
2.08228359967
 20
48.936129943
 30
0.0
 40
0.5
 50
3.60580692848e-06
 51
-179.999996394
  0
LINE
 62
1
  8
0
 10
1.58228359967
 20
48.9361299115
 30
0.0
 11
1.58228364741
 21
48.1774912284
 31
0.0
  0
LINE
 62
1
  8
0
 10
1.64812420294
 20
47.9294880809
 30
0.0
 11
2.0273119881
 21
47.265674178
 31
0.0
  0
ARC
 62
1
  8
0
 10
2.46147143258
 20
47.513677357
 30
0.0
 40
0.5
 50
-150.263867367
 51
29.736132633
  0
LINE
 62
1
  8
0
 10
2.89563087705
 20
47.7616805359
 30
0.0
 11
2.51644309188
 21
48.4254944388
 31
0.0
  0
ARC
 62
1
  8
0
 10
2.08228364741
 20
48.1774912598
 30
0.0
 40
0.5
 50
29.736132633
 51
-150.263867367
  0
LINE
 62
1
  8
0
 10
1.64812420294
 20
47.9294880809
 30
0.0
 11
2.0273119881
 21
47.265674178
 31
0.0
  0
LINE
 62
1
  8
0
 10
2.28585899133
 20
47.0455317915
 30
0.0
 11
3.04423456544
 21
46.7610472299
 31
0.0
  0
ARC
 62
1
  8
0
 10
3.21984700668
 20
47.2291927954
 30
0.0
 40
0.5
 50
-110.562252709
 51
69.4377472909
  0
LINE
 62
1
  8
0
 10
3.39545944793
 20
47.6973383609
 30
0.0
 11
2.63708387382
 21
47.9818229224
 31
0.0
  0
ARC
 62
1
  8
0
 10
2.46147143258
 20
47.513677357
 30
0.0
 40
0.5
 50
69.4377472909
 51
-110.562252709
  0
LINE
 62
1
  8
0
 10
2.28585899133
 20
47.0455317915
 30
0.0
 11
3.04423456544
 21
46.7610472299
 31
0.0
  0
LINE
 62
1
  8
0
 10
3.04422921226
 20
46.761049238
 30
0.0
 11
3.8026047758
 21
46.4765547882
 31
0.0
  0
ARC
 62
1
  8
0
 10
3.97822257022
 20
46.9446983455
 30
0.0
 40
0.5
 50
-110.562907879
 51
69.4370921209
  0
LINE
 62
1
  8
0
 10
4.15384036464
 20
47.4128419029
 30
0.0
 11
3.3954648011
 21
47.6973363527
 31
0.0
  0
ARC
 62
1
  8
0
 10
3.21984700668
 20
47.2291927954
 30
0.0
 40
0.5
 50
69.4370921209
 51
-110.562907879
  0
LINE
 62
1
  8
0
 10
3.04422921226
 20
46.761049238
 30
0.0
 11
3.8026047758
 21
46.4765547882
 31
0.0
  0
LINE
 62
1
  8
0
 10
3.85691514184
 20
46.4596370011
 30
0.0
 11
4.61529074377
 21
46.2699772909
 31
0.0
  0
ARC
 62
1
  8
0
 10
4.73659817215
 20
46.7550386353
 30
0.0
 40
0.5
 50
-104.040922873
 51
75.9590771267
  0
LINE
 62
1
  8
0
 10
4.85790560054
 20
47.2400999797
 30
0.0
 11
4.0995299986
 21
47.4297596899
 31
0.0
  0
ARC
 62
1
  8
0
 10
3.97822257022
 20
46.9446983455
 30
0.0
 40
0.5
 50
75.9590771267
 51
-104.040922873
  0
LINE
 62
1
  8
0
 10
3.85691514184
 20
46.4596370011
 30
0.0
 11
4.61529074377
 21
46.2699772909
 31
0.0
  0
LINE
 62
1
  8
0
 10
4.56098574886
 20
46.2868930631
 30
0.0
 11
5.31936131741
 21
46.0024085367
 31
0.0
  0
ARC
 62
1
  8
0
 10
5.49497374071
 20
46.470554109
 30
0.0
 40
0.5
 50
-110.562250512
 51
69.4377494877
  0
LINE
 62
1
  8
0
 10
5.670586164
 20
46.9386996812
 30
0.0
 11
4.91221059545
 21
47.2231842075
 31
0.0
  0
ARC
 62
1
  8
0
 10
4.73659817215
 20
46.7550386353
 30
0.0
 40
0.5
 50
69.4377494877
 51
-110.562250512
  0
LINE
 62
1
  8
0
 10
4.56098574886
 20
46.2868930631
 30
0.0
 11
5.31936131741
 21
46.0024085367
 31
0.0
  0
LINE
 62
1
  8
0
 10
5.31935590386
 20
46.0024105675
 30
0.0
 11
6.07773146219
 21
45.7179160412
 31
0.0
  0
ARC
 62
1
  8
0
 10
6.25334929904
 20
46.1860595826
 30
0.0
 40
0.5
 50
-110.562913072
 51
69.4370869284
  0
LINE
 62
1
  8
0
 10
6.42896713588
 20
46.6542031241
 30
0.0
 11
5.67059157755
 21
46.9386976504
 31
0.0
  0
ARC
 62
1
  8
0
 10
5.49497374071
 20
46.470554109
 30
0.0
 40
0.5
 50
69.4370869284
 51
-110.562913072
  0
LINE
 62
1
  8
0
 10
5.31935590386
 20
46.0024105675
 30
0.0
 11
6.07773146219
 21
45.7179160412
 31
0.0
  0
LINE
 62
1
  8
0
 10
6.02968042116
 20
45.7388770326
 30
0.0
 11
6.78805606588
 21
45.3595576038
 31
0.0
  0
ARC
 62
1
  8
0
 10
7.01172494375
 20
45.8067401538
 30
0.0
 40
0.5
 50
-116.573004988
 51
63.4269950116
  0
LINE
 62
1
  8
0
 10
7.23539382162
 20
46.2539227039
 30
0.0
 11
6.47701817691
 21
46.6332421327
 31
0.0
  0
ARC
 62
1
  8
0
 10
6.25334929904
 20
46.1860595826
 30
0.0
 40
0.5
 50
63.4269950116
 51
-116.573004988
  0
LINE
 62
1
  8
0
 10
6.02968042116
 20
45.7388770326
 30
0.0
 11
6.78805606588
 21
45.3595576038
 31
0.0
  0
LINE
 62
1
  8
0
 10
6.72103715156
 20
45.3999224951
 30
0.0
 11
7.38461601162
 21
44.9257683633
 31
0.0
  0
ARC
 62
1
  8
0
 10
7.67530380381
 20
45.332586022
 30
0.0
 40
0.5
 50
-125.547352188
 51
54.4526478119
  0
LINE
 62
1
  8
0
 10
7.965991596
 20
45.7394036808
 30
0.0
 11
7.30241273594
 21
46.2135578126
 31
0.0
  0
ARC
 62
1
  8
0
 10
7.01172494375
 20
45.8067401538
 30
0.0
 40
0.5
 50
54.4526478119
 51
-125.547352188
  0
LINE
 62
1
  8
0
 10
6.72103715156
 20
45.3999224951
 30
0.0
 11
7.38461601162
 21
44.9257683633
 31
0.0
  0
LINE
 62
1
  8
0
 10
7.23818996518
 20
45.0898279283
 30
0.0
 11
7.71217448454
 21
44.2363643444
 31
0.0
  0
ARC
 62
1
  8
0
 10
8.14928832318
 20
44.4791224381
 30
0.0
 40
0.5
 50
-150.953702857
 51
29.0462971426
  0
LINE
 62
1
  8
0
 10
8.58640216181
 20
44.7218805319
 30
0.0
 11
8.11241764244
 21
45.5753441158
 31
0.0
  0
ARC
 62
1
  8
0
 10
7.67530380381
 20
45.332586022
 30
0.0
 40
0.5
 50
29.0462971426
 51
-150.953702857
  0
LINE
 62
1
  8
0
 10
7.23818996518
 20
45.0898279283
 30
0.0
 11
7.71217448454
 21
44.2363643444
 31
0.0
  0
LINE
 62
1
  8
0
 10
7.77552546138
 20
44.147006008
 30
0.0
 11
8.5339009803
 21
43.2935324109
 31
0.0
  0
ARC
 62
1
  8
0
 10
8.9076638421
 20
43.625648841
 30
0.0
 40
0.5
 50
-138.376500595
 51
41.6234994049
  0
LINE
 62
1
  8
0
 10
9.2814267039
 20
43.9577652711
 30
0.0
 11
8.52305118497
 21
44.8112388682
 31
0.0
  0
ARC
 62
1
  8
0
 10
8.14928832318
 20
44.4791224381
 30
0.0
 40
0.5
 50
41.6234994049
 51
-138.376500595
  0
LINE
 62
1
  8
0
 10
7.77552546138
 20
44.147006008
 30
0.0
 11
8.5339009803
 21
43.2935324109
 31
0.0
  0
LINE
 62
1
  8
0
 10
8.63024728846
 20
43.2096680051
 30
0.0
 11
9.19902948094
 21
42.8303486182
 31
0.0
  0
ARC
 62
1
  8
0
 10
9.47644603458
 20
43.2463294541
 30
0.0
 40
0.5
 50
-123.699220395
 51
56.3007796049
  0
LINE
 62
1
  8
0
 10
9.75386258821
 20
43.6623102899
 30
0.0
 11
9.18508039573
 21
44.0416296768
 31
0.0
  0
ARC
 62
1
  8
0
 10
8.9076638421
 20
43.625648841
 30
0.0
 40
0.5
 50
56.3007796049
 51
-123.699220395
  0
LINE
 62
1
  8
0
 10
8.63024728846
 20
43.2096680051
 30
0.0
 11
9.19902948094
 21
42.8303486182
 31
0.0
  0
LINE
 62
1
  8
0
 10
9.35513861214
 20
42.7612681082
 30
0.0
 11
10.1135142598
 21
42.5716083964
 31
0.0
  0
ARC
 62
1
  8
0
 10
10.2348216823
 20
43.0566697423
 30
0.0
 40
0.5
 50
-104.040922171
 51
75.9590778295
  0
LINE
 62
1
  8
0
 10
10.3561291047
 20
43.5417310882
 30
0.0
 11
9.59775345701
 21
43.7313907999
 31
0.0
  0
ARC
 62
1
  8
0
 10
9.47644603458
 20
43.2463294541
 30
0.0
 40
0.5
 50
75.9590778295
 51
-104.040922171
  0
LINE
 62
1
  8
0
 10
9.35513861214
 20
42.7612681082
 30
0.0
 11
10.1135142598
 21
42.5716083964
 31
0.0
  0
LINE
 62
1
  8
0
 10
10.0111528294
 20
42.6094871797
 30
0.0
 11
10.7695284015
 21
42.2301678401
 31
0.0
  0
ARC
 62
1
  8
0
 10
10.9931972544
 20
42.6773504027
 30
0.0
 40
0.5
 50
-116.573001791
 51
63.4269982095
  0
LINE
 62
1
  8
0
 10
11.2168661073
 20
43.1245329652
 30
0.0
 11
10.4584905352
 21
43.5038523048
 31
0.0
  0
ARC
 62
1
  8
0
 10
10.2348216823
 20
43.0566697423
 30
0.0
 40
0.5
 50
63.4269982095
 51
-116.573001791
  0
LINE
 62
1
  8
0
 10
10.0111528294
 20
42.6094871797
 30
0.0
 11
10.7695284015
 21
42.2301678401
 31
0.0
  0
LINE
 62
1
  8
0
 10
10.6395826815
 20
42.323858205
 30
0.0
 11
11.2083648516
 21
41.7548791284
 31
0.0
  0
ARC
 62
1
  8
0
 10
11.5619794245
 20
42.1083713261
 30
0.0
 40
0.5
 50
-135.009915885
 51
44.9900841146
  0
LINE
 62
1
  8
0
 10
11.9155939975
 20
42.4618635237
 30
0.0
 11
11.3468118274
 21
43.0308426003
 31
0.0
  0
ARC
 62
1
  8
0
 10
10.9931972544
 20
42.6773504027
 30
0.0
 40
0.5
 50
44.9900841146
 51
-135.009915885
  0
LINE
 62
1
  8
0
 10
10.6395826815
 20
42.323858205
 30
0.0
 11
11.2083648516
 21
41.7548791284
 31
0.0
  0
LINE
 62
1
  8
0
 10
11.12781999
 20
41.8603681298
 30
0.0
 11
11.5070077681
 21
41.1965543008
 31
0.0
  0
ARC
 62
1
  8
0
 10
11.9411672026
 20
41.4445574971
 30
0.0
 40
0.5
 50
-150.263865081
 51
29.7361349187
  0
LINE
 62
1
  8
0
 10
12.3753266372
 20
41.6925606934
 30
0.0
 11
11.9961388591
 21
42.3563745224
 31
0.0
  0
ARC
 62
1
  8
0
 10
11.5619794245
 20
42.1083713261
 30
0.0
 40
0.5
 50
29.7361349187
 51
-150.263865081
  0
LINE
 62
1
  8
0
 10
11.12781999
 20
41.8603681298
 30
0.0
 11
11.5070077681
 21
41.1965543008
 31
0.0
  0
LINE
 62
1
  8
0
 10
11.4450255955
 20
41.3825614836
 30
0.0
 11
11.5398222853
 21
40.6239226719
 31
0.0
  0
ARC
 62
1
  8
0
 10
12.0359638924
 20
40.6859186854
 30
0.0
 40
0.5
 50
-172.877449651
 51
7.12255034933
  0
LINE
 62
1
  8
0
 10
12.5321054995
 20
40.7479146989
 30
0.0
 11
12.4373088097
 21
41.5065535106
 31
0.0
  0
ARC
 62
1
  8
0
 10
11.9411672026
 20
41.4445574971
 30
0.0
 40
0.5
 50
7.12255034933
 51
-172.877449651
  0
LINE
 62
1
  8
0
 10
11.4450255955
 20
41.3825614836
 30
0.0
 11
11.5398222853
 21
40.6239226719
 31
0.0
  0
LINE
 62
1
  8
0
 10
11.6018044516
 20
40.9339218708
 30
0.0
 11
11.2226166534
 21
40.270107968
 31
0.0
  0
ARC
 62
1
  8
0
 10
11.6567760942
 20
40.0221047826
 30
0.0
 40
0.5
 50
-209.736133488
 51
-29.7361334879
  0
LINE
 62
1
  8
0
 10
12.0909355349
 20
39.7741015971
 30
0.0
 11
12.4701233332
 21
40.4379154999
 31
0.0
  0
ARC
 62
1
  8
0
 10
12.0359638924
 20
40.6859186854
 30
0.0
 40
0.5
 50
-29.7361334879
 51
-209.736133488
  0
LINE
 62
1
  8
0
 10
11.6018044516
 20
40.9339218708
 30
0.0
 11
11.2226166534
 21
40.270107968
 31
0.0
  0
LINE
 62
1
  8
0
 10
11.2226182667
 20
40.2701107924
 30
0.0
 11
10.8434304654
 21
39.6063069106
 31
0.0
  0
ARC
 62
1
  8
0
 10
11.2775882928
 20
39.3583009008
 30
0.0
 40
0.5
 50
-209.736506218
 51
-29.7365062184
  0
LINE
 62
1
  8
0
 10
11.7117461202
 20
39.110294891
 30
0.0
 11
12.0909339216
 21
39.7740987728
 31
0.0
  0
ARC
 62
1
  8
0
 10
11.6567760942
 20
40.0221047826
 30
0.0
 40
0.5
 50
-29.7365062184
 51
-209.736506218
  0
LINE
 62
1
  8
0
 10
11.2226182667
 20
40.2701107924
 30
0.0
 11
10.8434304654
 21
39.6063069106
 31
0.0
  0
LINE
 62
1
  8
0
 10
10.870672776
 20
39.6488516918
 30
0.0
 11
10.3966883013
 21
38.9850378478
 31
0.0
  0
ARC
 62
1
  8
0
 10
10.8036038182
 20
38.6944870568
 30
0.0
 40
0.5
 50
-215.528059407
 51
-35.5280594069
  0
LINE
 62
1
  8
0
 10
11.210519335
 20
38.4039362658
 30
0.0
 11
11.6845038096
 21
39.0677501097
 31
0.0
  0
ARC
 62
1
  8
0
 10
11.2775882928
 20
39.3583009008
 30
0.0
 40
0.5
 50
-35.5280594069
 51
-215.528059407
  0
LINE
 62
1
  8
0
 10
10.870672776
 20
39.6488516918
 30
0.0
 11
10.3966883013
 21
38.9850378478
 31
0.0
  0
LINE
 62
1
  8
0
 10
10.4499892506
 20
39.0479792598
 30
0.0
 11
9.88120705634
 21
38.4790001764
 31
0.0
  0
ARC
 62
1
  8
0
 10
10.2348216239
 20
38.1255079734
 30
0.0
 40
0.5
 50
-224.990084984
 51
-44.9900849841
  0
LINE
 62
1
  8
0
 10
10.5884361915
 20
37.7720157704
 30
0.0
 11
11.1572183858
 21
38.3409948538
 31
0.0
  0
ARC
 62
1
  8
0
 10
10.8036038182
 20
38.6944870568
 30
0.0
 40
0.5
 50
-44.9900849841
 51
-224.990084984
  0
LINE
 62
1
  8
0
 10
10.4499892506
 20
39.0479792598
 30
0.0
 11
9.88120705634
 21
38.4790001764
 31
0.0
  0
LINE
 62
1
  8
0
 10
9.81875204704
 20
38.4027914153
 30
0.0
 11
9.43956432673
 21
37.8338123474
 31
0.0
  0
ARC
 62
1
  8
0
 10
9.85563390362
 20
37.5565289055
 30
0.0
 40
0.5
 50
-213.680888003
 51
-33.680888003
  0
LINE
 62
1
  8
0
 10
10.2717034805
 20
37.2792454635
 30
0.0
 11
10.6508912008
 21
37.8482245314
 31
0.0
  0
ARC
 62
1
  8
0
 10
10.2348216239
 20
38.1255079734
 30
0.0
 40
0.5
 50
-33.680888003
 51
-213.680888003
  0
LINE
 62
1
  8
0
 10
9.81875204704
 20
38.4027914153
 30
0.0
 11
9.43956432673
 21
37.8338123474
 31
0.0
  0
LINE
 62
1
  8
0
 10
9.38744934586
 20
37.7320373664
 30
0.0
 11
9.1030582471
 21
36.9733986087
 31
0.0
  0
ARC
 62
1
  8
0
 10
9.57124280486
 20
36.7978901477
 30
0.0
 40
0.5
 50
-200.549527218
 51
-20.5495272182
  0
LINE
 62
1
  8
0
 10
10.0394273626
 20
36.6223816868
 30
0.0
 11
10.3238184614
 21
37.3810204445
 31
0.0
  0
ARC
 62
1
  8
0
 10
9.85563390362
 20
37.5565289055
 30
0.0
 40
0.5
 50
-20.5495272182
 51
-200.549527218
  0
LINE
 62
1
  8
0
 10
9.38744934586
 20
37.7320373664
 30
0.0
 11
9.1030582471
 21
36.9733986087
 31
0.0
  0
LINE
 62
1
  8
0
 10
9.07626451757
 20
36.7272042573
 30
0.0
 11
9.17106114093
 21
36.0633904472
 31
0.0
  0
ARC
 62
1
  8
0
 10
9.66603942822
 20
36.1340763377
 30
0.0
 40
0.5
 50
-171.872766929
 51
8.12723307139
  0
LINE
 62
1
  8
0
 10
10.1610177155
 20
36.2047622281
 30
0.0
 11
10.0662210921
 21
36.8685760382
 31
0.0
  0
ARC
 62
1
  8
0
 10
9.57124280486
 20
36.7978901477
 30
0.0
 40
0.5
 50
8.12723307139
 51
-171.872766929
  0
LINE
 62
1
  8
0
 10
9.07626451757
 20
36.7272042573
 30
0.0
 11
9.17106114093
 21
36.0633904472
 31
0.0
  0
LINE
 62
1
  8
0
 10
9.26598962466
 20
35.8341427539
 30
0.0
 11
9.83477189633
 21
35.0755040139
 31
0.0
  0
ARC
 62
1
  8
0
 10
10.2348216999
 20
35.3754375977
 30
0.0
 40
0.5
 50
-143.139615187
 51
36.860384813
  0
LINE
 62
1
  8
0
 10
10.6348715035
 20
35.6753711815
 30
0.0
 11
10.0660892318
 21
36.4340099214
 31
0.0
  0
ARC
 62
1
  8
0
 10
9.66603942822
 20
36.1340763377
 30
0.0
 40
0.5
 50
36.860384813
 51
-143.139615187
  0
LINE
 62
1
  8
0
 10
9.26598962466
 20
35.8341427539
 30
0.0
 11
9.83477189633
 21
35.0755040139
 31
0.0
  0
LINE
 62
1
  8
0
 10
10.0592037909
 20
34.9072940833
 30
0.0
 11
10.8175793
 21
34.6227994422
 31
0.0
  0
ARC
 62
1
  8
0
 10
10.993197209
 20
35.0909429566
 30
0.0
 40
0.5
 50
-110.5629219
 51
69.4370781004
  0
LINE
 62
1
  8
0
 10
11.1688151179
 20
35.5590864709
 30
0.0
 11
10.4104396089
 21
35.8435811121
 31
0.0
  0
ARC
 62
1
  8
0
 10
10.2348216999
 20
35.3754375977
 30
0.0
 40
0.5
 50
69.4370781004
 51
-110.5629219
  0
LINE
 62
1
  8
0
 10
10.0592037909
 20
34.9072940833
 30
0.0
 11
10.8175793
 21
34.6227994422
 31
0.0
  0
LINE
 62
1
  8
0
 10
10.8615982271
 20
34.6085720329
 30
0.0
 11
11.9043649506
 21
34.3240875574
 31
0.0
  0
ARC
 62
1
  8
0
 10
12.0359639326
 20
34.8064584811
 30
0.0
 40
0.5
 50
-105.259902971
 51
74.7400970285
  0
LINE
 62
1
  8
0
 10
12.1675629145
 20
35.2888294047
 30
0.0
 11
11.1247961909
 21
35.5733138802
 31
0.0
  0
ARC
 62
1
  8
0
 10
10.993197209
 20
35.0909429566
 30
0.0
 40
0.5
 50
74.7400970285
 51
-105.259902971
  0
LINE
 62
1
  8
0
 10
10.8615982271
 20
34.6085720329
 30
0.0
 11
11.9043649506
 21
34.3240875574
 31
0.0
  0
LINE
 62
1
  8
0
 10
11.9861924144
 20
34.3089418522
 30
0.0
 11
12.934162428
 21
34.2141070185
 31
0.0
  0
ARC
 62
1
  8
0
 10
12.9839339461
 20
34.7116236473
 30
0.0
 40
0.5
 50
-95.7128570956
 51
84.2871429044
  0
LINE
 62
1
  8
0
 10
13.0337054643
 20
35.2091402762
 30
0.0
 11
12.0857354508
 21
35.3039751099
 31
0.0
  0
ARC
 62
1
  8
0
 10
12.0359639326
 20
34.8064584811
 30
0.0
 40
0.5
 50
84.2871429044
 51
-95.7128570956
  0
LINE
 62
1
  8
0
 10
11.9861924144
 20
34.3089418522
 30
0.0
 11
12.934162428
 21
34.2141070185
 31
0.0
  0
LINE
 62
1
  8
0
 10
12.9287021194
 20
34.2146835651
 30
0.0
 11
13.7818743432
 21
34.1198587318
 31
0.0
  0
ARC
 62
1
  8
0
 10
13.8371061699
 20
34.616798814
 30
0.0
 40
0.5
 50
-96.3420438452
 51
83.6579561548
  0
LINE
 62
1
  8
0
 10
13.8923379967
 20
35.1137388962
 30
0.0
 11
13.0391657729
 21
35.2085637296
 31
0.0
  0
ARC
 62
1
  8
0
 10
12.9839339461
 20
34.7116236473
 30
0.0
 40
0.5
 50
83.6579561548
 51
-96.3420438452
  0
LINE
 62
1
  8
0
 10
12.9287021194
 20
34.2146835651
 30
0.0
 11
13.7818743432
 21
34.1198587318
 31
0.0
  0
LINE
 62
1
  8
0
 10
13.7390154547
 20
34.1265150068
 30
0.0
 11
14.6869854609
 21
33.9368553555
 31
0.0
  0
ARC
 62
1
  8
0
 10
14.7850761761
 20
34.4271391627
 30
0.0
 40
0.5
 50
-101.313747736
 51
78.6862522638
  0
LINE
 62
1
  8
0
 10
14.8831668913
 20
34.9174229698
 30
0.0
 11
13.9351968852
 21
35.1070826212
 31
0.0
  0
ARC
 62
1
  8
0
 10
13.8371061699
 20
34.616798814
 30
0.0
 40
0.5
 50
78.6862522638
 51
-101.313747736
  0
LINE
 62
1
  8
0
 10
13.7390154547
 20
34.1265150068
 30
0.0
 11
14.6869854609
 21
33.9368553555
 31
0.0
  0
LINE
 62
1
  8
0
 10
14.7353045742
 20
33.9296225422
 30
0.0
 11
15.6832735912
 21
33.834787647
 31
0.0
  0
ARC
 62
1
  8
0
 10
15.7330451931
 20
34.3323042675
 30
0.0
 40
0.5
 50
-95.7128667388
 51
84.2871332612
  0
LINE
 62
1
  8
0
 10
15.7828167951
 20
34.829820888
 30
0.0
 11
14.834847778
 21
34.9246557831
 31
0.0
  0
ARC
 62
1
  8
0
 10
14.7850761761
 20
34.4271391627
 30
0.0
 40
0.5
 50
84.2871332612
 51
-95.7128667388
  0
LINE
 62
1
  8
0
 10
14.7353045742
 20
33.9296225422
 30
0.0
 11
15.6832735912
 21
33.834787647
 31
0.0
  0
LINE
 62
1
  8
0
 10
15.6832789039
 20
33.8347871156
 30
0.0
 11
16.6312488884
 21
33.7399623478
 31
0.0
  0
ARC
 62
1
  8
0
 10
16.6810151776
 20
34.2374794997
 30
0.0
 40
0.5
 50
-95.7122549077
 51
84.2877450923
  0
LINE
 62
1
  8
0
 10
16.7307814668
 20
34.7349966516
 30
0.0
 11
15.7828114823
 21
34.8298214194
 31
0.0
  0
ARC
 62
1
  8
0
 10
15.7330451931
 20
34.3323042675
 30
0.0
 40
0.5
 50
84.2877450923
 51
-95.7122549077
  0
LINE
 62
1
  8
0
 10
15.6832789039
 20
33.8347871156
 30
0.0
 11
16.6312488884
 21
33.7399623478
 31
0.0
  0
LINE
 62
1
  8
0
 10
16.6810151416
 20
33.7374794997
 30
0.0
 11
17.5341873504
 21
33.7374794383
 31
0.0
  0
ARC
 62
1
  8
0
 10
17.5341873864
 20
34.2374794383
 30
0.0
 40
0.5
 50
-90.0000041209
 51
89.9999958791
  0
LINE
 62
1
  8
0
 10
17.5341874224
 20
34.7374794383
 30
0.0
 11
16.6810152136
 21
34.7374794997
 31
0.0
  0
ARC
 62
1
  8
0
 10
16.6810151776
 20
34.2374794997
 30
0.0
 40
0.5
 50
89.9999958791
 51
-90.0000041209
  0
LINE
 62
1
  8
0
 10
16.6810151416
 20
33.7374794997
 30
0.0
 11
17.5341873504
 21
33.7374794383
 31
0.0
  0
LINE
 62
1
  8
0
 10
17.534187366
 20
33.7374794383
 30
0.0
 11
18.3873596423
 21
33.7374794036
 31
0.0
  0
ARC
 62
1
  8
0
 10
18.3873596627
 20
34.2374794036
 30
0.0
 40
0.5
 50
-90.0000023331
 51
89.9999976669
  0
LINE
 62
1
  8
0
 10
18.387359683
 20
34.7374794036
 30
0.0
 11
17.5341874068
 21
34.7374794383
 31
0.0
  0
ARC
 62
1
  8
0
 10
17.5341873864
 20
34.2374794383
 30
0.0
 40
0.5
 50
89.9999976669
 51
-90.0000023331
  0
LINE
 62
1
  8
0
 10
17.534187366
 20
33.7374794383
 30
0.0
 11
18.3873596423
 21
33.7374794036
 31
0.0
  0
LINE
 62
1
  8
0
 10
18.3873597226
 20
33.7374794036
 30
0.0
 11
19.2405330544
 21
33.7374795058
 31
0.0
  0
ARC
 62
1
  8
0
 10
19.2405329945
 20
34.2374795058
 30
0.0
 40
0.5
 50
-89.9999931345
 51
90.0000068655
  0
LINE
 62
1
  8
0
 10
19.2405329345
 20
34.7374795058
 30
0.0
 11
18.3873596028
 21
34.7374794036
 31
0.0
  0
ARC
 62
1
  8
0
 10
18.3873596627
 20
34.2374794036
 30
0.0
 40
0.5
 50
90.0000068655
 51
-89.9999931345
  0
LINE
 62
1
  8
0
 10
18.3873597226
 20
33.7374794036
 30
0.0
 11
19.2405330544
 21
33.7374795058
 31
0.0
  0
LINE
 62
1
  8
0
 10
19.2405329401
 20
33.7374795058
 30
0.0
 11
20.0937052532
 21
33.7374794132
 31
0.0
  0
ARC
 62
1
  8
0
 10
20.0937053075
 20
34.2374794132
 30
0.0
 40
0.5
 50
-90.0000062232
 51
89.9999937768
  0
LINE
 62
1
  8
0
 10
20.0937053619
 20
34.7374794132
 30
0.0
 11
19.2405330488
 21
34.7374795058
 31
0.0
  0
ARC
 62
1
  8
0
 10
19.2405329945
 20
34.2374795058
 30
0.0
 40
0.5
 50
89.9999937768
 51
-90.0000062232
  0
LINE
 62
1
  8
0
 10
19.2405329401
 20
33.7374795058
 30
0.0
 11
20.0937052532
 21
33.7374794132
 31
0.0
  0
LINE
 62
1
  8
0
 10
20.0937053576
 20
33.7374794132
 30
0.0
 11
20.852080886
 21
33.7374794891
 31
0.0
  0
ARC
 62
1
  8
0
 10
20.852080836
 20
34.2374794891
 30
0.0
 40
0.5
 50
-89.9999942657
 51
90.0000057343
  0
LINE
 62
1
  8
0
 10
20.8520807859
 20
34.7374794891
 30
0.0
 11
20.0937052575
 21
34.7374794132
 31
0.0
  0
ARC
 62
1
  8
0
 10
20.0937053075
 20
34.2374794132
 30
0.0
 40
0.5
 50
90.0000057343
 51
-89.9999942657
  0
LINE
 62
1
  8
0
 10
20.0937053576
 20
33.7374794132
 30
0.0
 11
20.852080886
 21
33.7374794891
 31
0.0
  0
LINE
 62
1
  8
0
 10
20.9073126322
 20
33.7405394035
 30
0.0
 11
21.7604849522
 21
33.8353641944
 31
0.0
  0
ARC
 62
1
  8
0
 10
21.705253156
 20
34.33230428
 30
0.0
 40
0.5
 50
-83.6579596744
 51
96.3420403256
  0
LINE
 62
1
  8
0
 10
21.6500213597
 20
34.8292443656
 30
0.0
 11
20.7968490397
 21
34.7344195747
 31
0.0
  0
ARC
 62
1
  8
0
 10
20.852080836
 20
34.2374794891
 30
0.0
 40
0.5
 50
96.3420403256
 51
-83.6579596744
  0
LINE
 62
1
  8
0
 10
20.9073126322
 20
33.7405394035
 30
0.0
 11
21.7604849522
 21
33.8353641944
 31
0.0
  0
LINE
 62
1
  8
0
 10
21.7052531355
 20
33.83230428
 30
0.0
 11
22.463629696
 21
33.832304249
 31
0.0
  0
ARC
 62
1
  8
0
 10
22.4636297164
 20
34.332304249
 30
0.0
 40
0.5
 50
-90.0000023424
 51
89.9999976576
  0
LINE
 62
1
  8
0
 10
22.4636297368
 20
34.832304249
 30
0.0
 11
21.7052531764
 21
34.83230428
 31
0.0
  0
ARC
 62
1
  8
0
 10
21.705253156
 20
34.33230428
 30
0.0
 40
0.5
 50
89.9999976576
 51
-90.0000023424
  0
LINE
 62
1
  8
0
 10
21.7052531355
 20
33.83230428
 30
0.0
 11
22.463629696
 21
33.832304249
 31
0.0
  0
LINE
 62
1
  8
0
 10
22.511050588
 20
33.8345580678
 30
0.0
 11
24.501786245
 21
34.024217825
 31
0.0
  0
ARC
 62
1
  8
0
 10
24.4543653734
 20
34.5219640063
 30
0.0
 40
0.5
 50
-84.5577887663
 51
95.4422112337
  0
LINE
 62
1
  8
0
 10
24.4069445019
 20
35.0197101875
 30
0.0
 11
22.4162088448
 21
34.8300504303
 31
0.0
  0
ARC
 62
1
  8
0
 10
22.4636297164
 20
34.332304249
 30
0.0
 40
0.5
 50
95.4422112337
 51
-84.5577887663
  0
LINE
 62
1
  8
0
 10
22.511050588
 20
33.8345580678
 30
0.0
 11
24.501786245
 21
34.024217825
 31
0.0
  0
LINE
 62
1
  8
0
 10
24.516403919
 20
34.0258277156
 30
0.0
 11
26.033155105
 21
34.2154873702
 31
0.0
  0
ARC
 62
1
  8
0
 10
25.9711165595
 20
34.7116236608
 30
0.0
 40
0.5
 50
-82.8725379124
 51
97.1274620876
  0
LINE
 62
1
  8
0
 10
25.9090780139
 20
35.2077599514
 30
0.0
 11
24.3923268279
 21
35.0181002969
 31
0.0
  0
ARC
 62
1
  8
0
 10
24.4543653734
 20
34.5219640063
 30
0.0
 40
0.5
 50
97.1274620876
 51
-82.8725379124
  0
LINE
 62
1
  8
0
 10
24.516403919
 20
34.0258277156
 30
0.0
 11
26.033155105
 21
34.2154873702
 31
0.0
  0
LINE
 62
1
  8
0
 10
26.0796175481
 20
34.2235380787
 30
0.0
 11
26.9327908102
 21
34.4131977322
 31
0.0
  0
ARC
 62
1
  8
0
 10
26.8242898216
 20
34.9012833144
 30
0.0
 40
0.5
 50
-77.4669945358
 51
102.533005464
  0
LINE
 62
1
  8
0
 10
26.715788833
 20
35.3893688965
 30
0.0
 11
25.8626155708
 21
35.1997092429
 31
0.0
  0
ARC
 62
1
  8
0
 10
25.9711165595
 20
34.7116236608
 30
0.0
 40
0.5
 50
102.533005464
 51
-77.4669945358
  0
LINE
 62
1
  8
0
 10
26.0796175481
 20
34.2235380787
 30
0.0
 11
26.9327908102
 21
34.4131977322
 31
0.0
  0
LINE
 62
1
  8
0
 10
26.8740614001
 20
34.4037666915
 30
0.0
 11
27.8220303408
 21
34.498601534
 31
0.0
  0
ARC
 62
1
  8
0
 10
27.7722587623
 20
34.9961181568
 30
0.0
 40
0.5
 50
-84.2871359614
 51
95.7128640386
  0
LINE
 62
1
  8
0
 10
27.7224871839
 20
35.4936347796
 30
0.0
 11
26.7745182431
 21
35.3987999372
 31
0.0
  0
ARC
 62
1
  8
0
 10
26.8242898216
 20
34.9012833144
 30
0.0
 40
0.5
 50
95.7128640386
 51
-84.2871359614
  0
LINE
 62
1
  8
0
 10
26.8740614001
 20
34.4037666915
 30
0.0
 11
27.8220303408
 21
34.498601534
 31
0.0
  0
LINE
 62
1
  8
0
 10
27.8703495286
 20
34.5058343598
 30
0.0
 11
28.8183195959
 21
34.6954941261
 31
0.0
  0
ARC
 62
1
  8
0
 10
28.7202288296
 20
35.185777923
 30
0.0
 40
0.5
 50
-78.6862462968
 51
101.313753703
  0
LINE
 62
1
  8
0
 10
28.6221380633
 20
35.67606172
 30
0.0
 11
27.674167996
 21
35.4864019537
 31
0.0
  0
ARC
 62
1
  8
0
 10
27.7722587623
 20
34.9961181568
 30
0.0
 40
0.5
 50
101.313753703
 51
-78.6862462968
  0
LINE
 62
1
  8
0
 10
27.8703495286
 20
34.5058343598
 30
0.0
 11
28.8183195959
 21
34.6954941261
 31
0.0
  0
LINE
 62
1
  8
0
 10
28.7754606254
 20
34.6888378374
 30
0.0
 11
29.628632824
 21
34.783662614
 31
0.0
  0
ARC
 62
1
  8
0
 10
29.5734010283
 20
35.2806026996
 30
0.0
 40
0.5
 50
-83.6579597333
 51
96.3420402667
  0
LINE
 62
1
  8
0
 10
29.5181692326
 20
35.7775427853
 30
0.0
 11
28.6649970339
 21
35.6827180087
 31
0.0
  0
ARC
 62
1
  8
0
 10
28.7202288296
 20
35.185777923
 30
0.0
 40
0.5
 50
96.3420402667
 51
-83.6579597333
  0
LINE
 62
1
  8
0
 10
28.7754606254
 20
34.6888378374
 30
0.0
 11
29.628632824
 21
34.783662614
 31
0.0
  0
LINE
 62
1
  8
0
 10
29.6286385908
 20
34.7836632549
 30
0.0
 11
30.4818109102
 21
34.878498068
 31
0.0
  0
ARC
 62
1
  8
0
 10
30.4265733477
 20
35.3754375127
 30
0.0
 40
0.5
 50
-83.6572948372
 51
96.3427051628
  0
LINE
 62
1
  8
0
 10
30.3713357851
 20
35.8723769574
 30
0.0
 11
29.5181634658
 21
35.7775421443
 31
0.0
  0
ARC
 62
1
  8
0
 10
29.5734010283
 20
35.2806026996
 30
0.0
 40
0.5
 50
96.3427051628
 51
-83.6572948372
  0
LINE
 62
1
  8
0
 10
29.6286385908
 20
34.7836632549
 30
0.0
 11
30.4818109102
 21
34.878498068
 31
0.0
  0
LINE
 62
1
  8
0
 10
30.4886151419
 20
34.8793016283
 30
0.0
 11
31.246990741
 21
34.9741364998
 31
0.0
  0
ARC
 62
1
  8
0
 10
31.1849489468
 20
35.4702723842
 30
0.0
 40
0.5
 50
-82.8721627423
 51
97.1278372577
  0
LINE
 62
1
  8
0
 10
31.1229071526
 20
35.9664082686
 30
0.0
 11
30.3645315535
 21
35.8715733971
 31
0.0
  0
ARC
 62
1
  8
0
 10
30.4265733477
 20
35.3754375127
 30
0.0
 40
0.5
 50
97.1278372577
 51
-82.8721627423
  0
LINE
 62
1
  8
0
 10
30.4886151419
 20
34.8793016283
 30
0.0
 11
31.246990741
 21
34.9741364998
 31
0.0
  0
LINE
 62
1
  8
0
 10
31.2830397188
 20
34.9799885884
 30
0.0
 11
32.2310096595
 21
35.1696483407
 31
0.0
  0
ARC
 62
1
  8
0
 10
32.1329188875
 20
35.6599321365
 30
0.0
 40
0.5
 50
-78.6862456352
 51
101.313754365
  0
LINE
 62
1
  8
0
 10
32.0348281155
 20
36.1502159323
 30
0.0
 11
31.0868581749
 21
35.96055618
 31
0.0
  0
ARC
 62
1
  8
0
 10
31.1849489468
 20
35.4702723842
 30
0.0
 40
0.5
 50
101.313754365
 51
-78.6862456352
  0
LINE
 62
1
  8
0
 10
31.2830397188
 20
34.9799885884
 30
0.0
 11
32.2310096595
 21
35.1696483407
 31
0.0
  0
LINE
 62
1
  8
0
 10
32.1329188624
 20
35.1599321365
 30
0.0
 11
33.6496700534
 21
35.1599320604
 31
0.0
  0
ARC
 62
1
  8
0
 10
33.6496700785
 20
35.6599320604
 30
0.0
 40
0.5
 50
-90.0000028753
 51
89.9999971247
  0
LINE
 62
1
  8
0
 10
33.6496701036
 20
36.1599320604
 30
0.0
 11
32.1329189126
 21
36.1599321365
 31
0.0
  0
ARC
 62
1
  8
0
 10
32.1329188875
 20
35.6599321365
 30
0.0
 40
0.5
 50
89.9999971247
 51
-90.0000028753
  0
LINE
 62
1
  8
0
 10
32.1329188624
 20
35.1599321365
 30
0.0
 11
33.6496700534
 21
35.1599320604
 31
0.0
  0
LINE
 62
1
  8
0
 10
33.5025770907
 20
35.182057963
 30
0.0
 11
34.7349381366
 21
34.8027286182
 31
0.0
  0
ARC
 62
1
  8
0
 10
34.8820311244
 20
35.2806027156
 30
0.0
 40
0.5
 50
-107.108731329
 51
72.8912686713
  0
LINE
 62
1
  8
0
 10
35.0291241121
 20
35.758476813
 30
0.0
 11
33.7967630663
 21
36.1378061578
 31
0.0
  0
ARC
 62
1
  8
0
 10
33.6496700785
 20
35.6599320604
 30
0.0
 40
0.5
 50
72.8912686713
 51
-107.108731329
  0
LINE
 62
1
  8
0
 10
33.5025770907
 20
35.182057963
 30
0.0
 11
34.7349381366
 21
34.8027286182
 31
0.0
  0
LINE
 62
1
  8
0
 10
34.5284182012
 20
34.9271088677
 30
0.0
 11
35.0024027169
 21
34.4529646891
 31
0.0
  0
ARC
 62
1
  8
0
 10
35.3560156401
 20
34.8064585371
 30
0.0
 40
0.5
 50
-135.009648486
 51
44.9903515138
  0
LINE
 62
1
  8
0
 10
35.7096285633
 20
35.159952385
 30
0.0
 11
35.2356440476
 21
35.6340965636
 31
0.0
  0
ARC
 62
1
  8
0
 10
34.8820311244
 20
35.2806027156
 30
0.0
 40
0.5
 50
44.9903515138
 51
-135.009648486
  0
LINE
 62
1
  8
0
 10
34.5284182012
 20
34.9271088677
 30
0.0
 11
35.0024027169
 21
34.4529646891
 31
0.0
  0
LINE
 62
1
  8
0
 10
34.9491001073
 20
34.5159077684
 30
0.0
 11
35.4230846346
 21
33.8520937736
 31
0.0
  0
ARC
 62
1
  8
0
 10
35.8300001674
 20
34.1426445423
 30
0.0
 40
0.5
 50
-144.471943739
 51
35.5280562607
  0
LINE
 62
1
  8
0
 10
36.2369157002
 20
34.433195311
 30
0.0
 11
35.7629311729
 21
35.0970093058
 31
0.0
  0
ARC
 62
1
  8
0
 10
35.3560156401
 20
34.8064585371
 30
0.0
 40
0.5
 50
35.5280562607
 51
-144.471943739
  0
LINE
 62
1
  8
0
 10
34.9491001073
 20
34.5159077684
 30
0.0
 11
35.4230846346
 21
33.8520937736
 31
0.0
  0
LINE
 62
1
  8
0
 10
35.4763856046
 20
33.7891523345
 30
0.0
 11
36.0451677863
 21
33.2201732791
 31
0.0
  0
ARC
 62
1
  8
0
 10
36.3987823491
 20
33.5736654869
 30
0.0
 40
0.5
 50
-135.009914235
 51
44.9900857647
  0
LINE
 62
1
  8
0
 10
36.7523969119
 20
33.9271576947
 30
0.0
 11
36.1836147302
 21
34.4961367501
 31
0.0
  0
ARC
 62
1
  8
0
 10
35.8300001674
 20
34.1426445423
 30
0.0
 40
0.5
 50
44.9900857647
 51
-135.009914235
  0
LINE
 62
1
  8
0
 10
35.4763856046
 20
33.7891523345
 30
0.0
 11
36.0451677863
 21
33.2201732791
 31
0.0
  0
LINE
 62
1
  8
0
 10
36.0190993297
 20
33.248333649
 30
0.0
 11
36.5878804446
 21
32.584529785
 31
0.0
  0
ARC
 62
1
  8
0
 10
36.967563464
 20
32.9098616229
 30
0.0
 40
0.5
 50
-139.408341104
 51
40.5916588956
  0
LINE
 62
1
  8
0
 10
37.3472464834
 20
33.2351934608
 30
0.0
 11
36.7784653685
 21
33.8989973248
 31
0.0
  0
ARC
 62
1
  8
0
 10
36.3987823491
 20
33.5736654869
 30
0.0
 40
0.5
 50
40.5916588956
 51
-139.408341104
  0
LINE
 62
1
  8
0
 10
36.0190993297
 20
33.248333649
 30
0.0
 11
36.5878804446
 21
32.584529785
 31
0.0
  0
LINE
 62
1
  8
0
 10
36.5878783314
 20
32.5845322512
 30
0.0
 11
37.1566605667
 21
31.9207183529
 31
0.0
  0
ARC
 62
1
  8
0
 10
37.5363456993
 20
32.2460477246
 30
0.0
 40
0.5
 50
-139.408713272
 51
40.5912867284
  0
LINE
 62
1
  8
0
 10
37.9160308319
 20
32.5713770962
 30
0.0
 11
37.3472485966
 21
33.2351909946
 31
0.0
  0
ARC
 62
1
  8
0
 10
36.967563464
 20
32.9098616229
 30
0.0
 40
0.5
 50
40.5912867284
 51
-139.408713272
  0
LINE
 62
1
  8
0
 10
36.5878783314
 20
32.5845322512
 30
0.0
 11
37.1566605667
 21
31.9207183529
 31
0.0
  0
LINE
 62
1
  8
0
 10
37.1202761869
 20
31.9687641858
 30
0.0
 11
37.4994640296
 21
31.3997852211
 31
0.0
  0
ARC
 62
1
  8
0
 10
37.915533542
 20
31.6770687598
 30
0.0
 40
0.5
 50
-146.319098668
 51
33.6809013322
  0
LINE
 62
1
  8
0
 10
38.3316030544
 20
31.9543522986
 30
0.0
 11
37.9524152117
 21
32.5233312633
 31
0.0
  0
ARC
 62
1
  8
0
 10
37.5363456993
 20
32.2460477246
 30
0.0
 40
0.5
 50
33.6809013322
 51
-146.319098668
  0
LINE
 62
1
  8
0
 10
37.1202761869
 20
31.9687641858
 30
0.0
 11
37.4994640296
 21
31.3997852211
 31
0.0
  0
LINE
 62
1
  8
0
 10
37.5619175514
 20
31.3235779804
 30
0.0
 11
38.2254964193
 21
30.6597640638
 31
0.0
  0
ARC
 62
1
  8
0
 10
38.5791124099
 20
31.0132548433
 30
0.0
 40
0.5
 50
-135.010145673
 51
44.9898543269
  0
LINE
 62
1
  8
0
 10
38.9327284006
 20
31.3667456227
 30
0.0
 11
38.2691495327
 21
32.0305595393
 31
0.0
  0
ARC
 62
1
  8
0
 10
37.915533542
 20
31.6770687598
 30
0.0
 40
0.5
 50
44.9898543269
 51
-135.010145673
  0
LINE
 62
1
  8
0
 10
37.5619175514
 20
31.3235779804
 30
0.0
 11
38.2254964193
 21
30.6597640638
 31
0.0
  0
LINE
 62
1
  8
0
 10
38.1949470723
 20
30.6932282923
 30
0.0
 11
38.6689315359
 21
30.1242492469
 31
0.0
  0
ARC
 62
1
  8
0
 10
39.0530968735
 20
30.4442757979
 30
0.0
 40
0.5
 50
-140.204220703
 51
39.795779297
  0
LINE
 62
1
  8
0
 10
39.4372622112
 20
30.7643023489
 30
0.0
 11
38.9632777476
 21
31.3332813943
 31
0.0
  0
ARC
 62
1
  8
0
 10
38.5791124099
 20
31.0132548433
 30
0.0
 40
0.5
 50
39.795779297
 51
-140.204220703
  0
LINE
 62
1
  8
0
 10
38.1949470723
 20
30.6932282923
 30
0.0
 11
38.6689315359
 21
30.1242492469
 31
0.0
  0
LINE
 62
1
  8
0
 10
38.646181342
 20
30.1537250274
 30
0.0
 11
39.1201658621
 21
29.489911049
 31
0.0
  0
ARC
 62
1
  8
0
 10
39.5270813936
 20
29.7804618195
 30
0.0
 40
0.5
 50
-144.471943486
 51
35.5280565142
  0
LINE
 62
1
  8
0
 10
39.9339969251
 20
30.07101259
 30
0.0
 11
39.460012405
 21
30.7348265684
 31
0.0
  0
ARC
 62
1
  8
0
 10
39.0530968735
 20
30.4442757979
 30
0.0
 40
0.5
 50
35.5280565142
 51
-144.471943486
  0
LINE
 62
1
  8
0
 10
38.646181342
 20
30.1537250274
 30
0.0
 11
39.1201658621
 21
29.489911049
 31
0.0
  0
LINE
 62
1
  8
0
 10
39.1201682526
 20
29.4899077011
 30
0.0
 11
39.5941537566
 21
28.8261038931
 31
0.0
  0
ARC
 62
1
  8
0
 10
40.0010668976
 20
29.1166580114
 30
0.0
 40
0.5
 50
-144.471472086
 51
35.5285279139
  0
LINE
 62
1
  8
0
 10
40.4079800386
 20
29.4072121298
 30
0.0
 11
39.9339945345
 21
30.0710159379
 31
0.0
  0
ARC
 62
1
  8
0
 10
39.5270813936
 20
29.7804618195
 30
0.0
 40
0.5
 50
35.5285279139
 51
-144.471472086
  0
LINE
 62
1
  8
0
 10
39.1201682526
 20
29.4899077011
 30
0.0
 11
39.5941537566
 21
28.8261038931
 31
0.0
  0
LINE
 62
1
  8
0
 10
39.6010168069
 20
28.8167248107
 30
0.0
 11
40.1697979593
 21
28.0580860502
 31
0.0
  0
ARC
 62
1
  8
0
 10
40.56984805
 20
28.3580192509
 30
0.0
 40
0.5
 50
-143.139670046
 51
36.8603299538
  0
LINE
 62
1
  8
0
 10
40.9698981408
 20
28.6579524516
 30
0.0
 11
40.4011169883
 21
29.4165912121
 31
0.0
  0
ARC
 62
1
  8
0
 10
40.0010668976
 20
29.1166580114
 30
0.0
 40
0.5
 50
36.8603299538
 51
-143.139670046
  0
LINE
 62
1
  8
0
 10
39.6010168069
 20
28.8167248107
 30
0.0
 11
40.1697979593
 21
28.0580860502
 31
0.0
  0
LINE
 62
1
  8
0
 10
40.0954897116
 20
28.1999554448
 30
0.0
 11
40.3798808161
 21
27.3464818059
 31
0.0
  0
ARC
 62
1
  8
0
 10
40.8542391545
 20
27.504545612
 30
0.0
 40
0.5
 50
-161.571099869
 51
18.4289001312
  0
LINE
 62
1
  8
0
 10
41.3285974929
 20
27.6626094181
 30
0.0
 11
41.0442063884
 21
28.516083057
 31
0.0
  0
ARC
 62
1
  8
0
 10
40.56984805
 20
28.3580192509
 30
0.0
 40
0.5
 50
18.4289001312
 51
-161.571099869
  0
LINE
 62
1
  8
0
 10
40.0954897116
 20
28.1999554448
 30
0.0
 11
40.3798808161
 21
27.3464818059
 31
0.0
  0
LINE
 62
1
  8
0
 10
40.35542316
 20
27.470156607
 30
0.0
 11
40.5450164854
 21
24.7200862532
 31
0.0
  0
ARC
 62
1
  8
0
 10
41.0438324799
 20
24.7544752582
 30
0.0
 40
0.5
 50
-176.056196821
 51
3.94380317928
  0
LINE
 62
1
  8
0
 10
41.5426484744
 20
24.7888642633
 30
0.0
 11
41.3530551489
 21
27.538934617
 31
0.0
  0
ARC
 62
1
  8
0
 10
40.8542391545
 20
27.504545612
 30
0.0
 40
0.5
 50
3.94380317928
 51
-176.056196821
  0
LINE
 62
1
  8
0
 10
40.35542316
 20
27.470156607
 30
0.0
 11
40.5450164854
 21
24.7200862532
 31
0.0
  0
LINE
 62
1
  8
0
 10
41.5438324799
 20
24.7544752475
 30
0.0
 11
41.5438325022
 21
25.7976085351
 31
0.0
  0
ARC
 62
1
  8
0
 10
41.0438325022
 20
25.7976085458
 30
0.0
 40
0.5
 50
-1.22680590534e-06
 51
179.999998773
  0
LINE
 62
1
  8
0
 10
40.5438325022
 20
25.7976085565
 30
0.0
 11
40.5438324799
 21
24.754475269
 31
0.0
  0
ARC
 62
1
  8
0
 10
41.0438324799
 20
24.7544752582
 30
0.0
 40
0.5
 50
179.999998773
 51
-1.22680590534e-06
  0
LINE
 62
1
  8
0
 10
41.5438324799
 20
24.7544752475
 30
0.0
 11
41.5438325022
 21
25.7976085351
 31
0.0
  0
LINE
 62
1
  8
0
 10
40.5463121867
 20
25.847343198
 30
0.0
 11
40.4515154633
 21
24.8990447044
 31
0.0
  0
ARC
 62
1
  8
0
 10
40.9490357789
 20
24.8493100523
 30
0.0
 40
0.5
 50
-185.708611489
 51
-5.70861148911
  0
LINE
 62
1
  8
0
 10
41.4465560944
 20
24.7995754001
 30
0.0
 11
41.5413528178
 21
25.7478738937
 31
0.0
  0
ARC
 62
1
  8
0
 10
41.0438325022
 20
25.7976085458
 30
0.0
 40
0.5
 50
-5.70861148911
 51
-185.708611489
  0
LINE
 62
1
  8
0
 10
40.5463121867
 20
25.847343198
 30
0.0
 11
40.4515154633
 21
24.8990447044
 31
0.0
  0
LINE
 62
1
  8
0
 10
40.4520917531
 20
24.9045063855
 30
0.0
 11
40.3572951406
 21
24.0510328392
 31
0.0
  0
ARC
 62
1
  8
0
 10
40.8542391664
 20
23.995836506
 30
0.0
 40
0.5
 50
-186.337951556
 51
-6.33795155591
  0
LINE
 62
1
  8
0
 10
41.3511831922
 20
23.9406401727
 30
0.0
 11
41.4459798047
 21
24.7941137191
 31
0.0
  0
ARC
 62
1
  8
0
 10
40.9490357789
 20
24.8493100523
 30
0.0
 40
0.5
 50
-6.33795155591
 51
-186.337951556
  0
LINE
 62
1
  8
0
 10
40.4520917531
 20
24.9045063855
 30
0.0
 11
40.3572951406
 21
24.0510328392
 31
0.0
  0
LINE
 62
1
  8
0
 10
40.3572951485
 20
24.051032911
 30
0.0
 11
40.2624984048
 21
23.1975593074
 31
0.0
  0
ARC
 62
1
  8
0
 10
40.7594424227
 20
23.1423629024
 30
0.0
 40
0.5
 50
-186.337959834
 51
-6.33795983407
  0
LINE
 62
1
  8
0
 10
41.2563864405
 20
23.0871664974
 30
0.0
 11
41.3511831842
 21
23.9406401009
 31
0.0
  0
ARC
 62
1
  8
0
 10
40.8542391664
 20
23.995836506
 30
0.0
 40
0.5
 50
-6.33795983407
 51
-186.337959834
  0
LINE
 62
1
  8
0
 10
40.3572951485
 20
24.051032911
 30
0.0
 11
40.2624984048
 21
23.1975593074
 31
0.0
  0
LINE
 62
1
  8
0
 10
40.2624985346
 20
23.1975604763
 30
0.0
 11
40.1677008771
 21
22.3440969408
 31
0.0
  0
ARC
 62
1
  8
0
 10
40.6646447651
 20
22.288899367
 30
0.0
 40
0.5
 50
-186.338094594
 51
-6.33809459424
  0
LINE
 62
1
  8
0
 10
41.1615886532
 20
22.2337017932
 30
0.0
 11
41.2563863107
 21
23.0871653286
 31
0.0
  0
ARC
 62
1
  8
0
 10
40.7594424227
 20
23.1423629024
 30
0.0
 40
0.5
 50
-6.33809459424
 51
-186.338094594
  0
LINE
 62
1
  8
0
 10
40.2624985346
 20
23.1975604763
 30
0.0
 11
40.1677008771
 21
22.3440969408
 31
0.0
  0
LINE
 62
1
  8
0
 10
40.1646447651
 20
22.2888993918
 30
0.0
 11
40.1646447228
 21
21.4354258196
 31
0.0
  0
ARC
 62
1
  8
0
 10
40.6646447228
 20
21.4354257948
 30
0.0
 40
0.5
 50
-180.000002839
 51
-2.83939164389e-06
  0
LINE
 62
1
  8
0
 10
41.1646447228
 20
21.43542577
 30
0.0
 11
41.1646447651
 21
22.2888993422
 31
0.0
  0
ARC
 62
1
  8
0
 10
40.6646447651
 20
22.288899367
 30
0.0
 40
0.5
 50
-2.83939164389e-06
 51
-180.000002839
  0
LINE
 62
1
  8
0
 10
40.1646447651
 20
22.2888993918
 30
0.0
 11
40.1646447228
 21
21.4354258196
 31
0.0
  0
LINE
 62
1
  8
0
 10
40.1743477945
 20
21.5334509044
 30
0.0
 11
39.9847544054
 21
20.5851524862
 31
0.0
  0
ARC
 62
1
  8
0
 10
40.4750513337
 20
20.4871273766
 30
0.0
 40
0.5
 50
-191.306080995
 51
-11.3060809955
  0
LINE
 62
1
  8
0
 10
40.965348262
 20
20.3891022671
 30
0.0
 11
41.1549416511
 21
21.3374006853
 31
0.0
  0
ARC
 62
1
  8
0
 10
40.6646447228
 20
21.4354257948
 30
0.0
 40
0.5
 50
-11.3060809955
 51
-191.306080995
  0
LINE
 62
1
  8
0
 10
40.1743477945
 20
21.5334509044
 30
0.0
 11
39.9847544054
 21
20.5851524862
 31
0.0
  0
LINE
 62
1
  8
0
 10
39.9869497665
 20
20.5955564324
 30
0.0
 11
39.7973553318
 21
19.7420827943
 31
0.0
  0
ARC
 62
1
  8
0
 10
40.285456899
 20
19.6336537385
 30
0.0
 40
0.5
 50
-192.524561492
 51
-12.5245614922
  0
LINE
 62
1
  8
0
 10
40.7735584661
 20
19.5252246827
 30
0.0
 11
40.9631529008
 21
20.3786983208
 31
0.0
  0
ARC
 62
1
  8
0
 10
40.4750513337
 20
20.4871273766
 30
0.0
 40
0.5
 50
-12.5245614922
 51
-192.524561492
  0
LINE
 62
1
  8
0
 10
39.9869497665
 20
20.5955564324
 30
0.0
 11
39.7973553318
 21
19.7420827943
 31
0.0
  0
LINE
 62
1
  8
0
 10
39.7893153773
 20
19.5716570411
 30
0.0
 11
39.8841131221
 21
18.8130182853
 31
0.0
  0
ARC
 62
1
  8
0
 10
40.3802546438
 20
18.8750149827
 30
0.0
 40
0.5
 50
-172.877370675
 51
7.12262932545
  0
LINE
 62
1
  8
0
 10
40.8763961654
 20
18.9370116801
 30
0.0
 11
40.7815984206
 21
19.6956504359
 31
0.0
  0
ARC
 62
1
  8
0
 10
40.285456899
 20
19.6336537385
 30
0.0
 40
0.5
 50
7.12262932545
 51
-172.877370675
  0
LINE
 62
1
  8
0
 10
39.7893153773
 20
19.5716570411
 30
0.0
 11
39.8841131221
 21
18.8130182853
 31
0.0
  0
LINE
 62
1
  8
0
 10
40.0547936585
 20
18.4954426615
 30
0.0
 11
40.7183715113
 21
17.9264636034
 31
0.0
  0
ARC
 62
1
  8
0
 10
41.0438324966
 20
18.3060359246
 30
0.0
 40
0.5
 50
-130.611150627
 51
49.3888493727
  0
LINE
 62
1
  8
0
 10
41.3692934819
 20
18.6856082458
 30
0.0
 11
40.7057156291
 21
19.2545873039
 31
0.0
  0
ARC
 62
1
  8
0
 10
40.3802546438
 20
18.8750149827
 30
0.0
 40
0.5
 50
49.3888493727
 51
-130.611150627
  0
LINE
 62
1
  8
0
 10
40.0547936585
 20
18.4954426615
 30
0.0
 11
40.7183715113
 21
17.9264636034
 31
0.0
  0
LINE
 62
1
  8
0
 10
40.9225252576
 20
17.8209745328
 30
0.0
 11
41.6809018981
 21
17.6313148774
 31
0.0
  0
ARC
 62
1
  8
0
 10
41.8022091371
 20
18.1163762692
 30
0.0
 40
0.5
 50
-104.040900509
 51
75.9590994913
  0
LINE
 62
1
  8
0
 10
41.9235163762
 20
18.6014376609
 30
0.0
 11
41.1651397357
 21
18.7910973163
 31
0.0
  0
ARC
 62
1
  8
0
 10
41.0438324966
 20
18.3060359246
 30
0.0
 40
0.5
 50
75.9590994913
 51
-104.040900509
  0
LINE
 62
1
  8
0
 10
40.9225252576
 20
17.8209745328
 30
0.0
 11
41.6809018981
 21
17.6313148774
 31
0.0
  0
LINE
 62
1
  8
0
 10
41.6584870774
 20
17.6374775643
 30
0.0
 11
42.6064560561
 21
17.3529830505
 31
0.0
  0
ARC
 62
1
  8
0
 10
42.7501781158
 20
17.8318817554
 30
0.0
 40
0.5
 50
-106.705000893
 51
73.2949991074
  0
LINE
 62
1
  8
0
 10
42.8939001756
 20
18.3107804603
 30
0.0
 11
41.9459311969
 21
18.595274974
 31
0.0
  0
ARC
 62
1
  8
0
 10
41.8022091371
 20
18.1163762692
 30
0.0
 40
0.5
 50
73.2949991074
 51
-106.705000893
  0
LINE
 62
1
  8
0
 10
41.6584870774
 20
17.6374775643
 30
0.0
 11
42.6064560561
 21
17.3529830505
 31
0.0
  0
LINE
 62
1
  8
0
 10
42.6520873741
 20
17.3415979535
 30
0.0
 11
43.6000573514
 21
17.1519382546
 31
0.0
  0
ARC
 62
1
  8
0
 10
43.6981480932
 20
17.6422220565
 30
0.0
 40
0.5
 50
-101.313750837
 51
78.6862491625
  0
LINE
 62
1
  8
0
 10
43.796238835
 20
18.1325058583
 30
0.0
 11
42.8482688576
 21
18.3221655573
 31
0.0
  0
ARC
 62
1
  8
0
 10
42.7501781158
 20
17.8318817554
 30
0.0
 40
0.5
 50
78.6862491625
 51
-101.313750837
  0
LINE
 62
1
  8
0
 10
42.6520873741
 20
17.3415979535
 30
0.0
 11
43.6000573514
 21
17.1519382546
 31
0.0
  0
LINE
 62
1
  8
0
 10
43.600057255
 20
17.1519382739
 30
0.0
 11
44.5480262319
 21
16.9622785813
 31
0.0
  0
ARC
 62
1
  8
0
 10
44.64611707
 20
17.4525623639
 30
0.0
 40
0.5
 50
-101.313762101
 51
78.6862378985
  0
LINE
 62
1
  8
0
 10
44.7442079082
 20
17.9428461465
 30
0.0
 11
43.7962389314
 21
18.1325058391
 31
0.0
  0
ARC
 62
1
  8
0
 10
43.6981480932
 20
17.6422220565
 30
0.0
 40
0.5
 50
78.6862378985
 51
-101.313762101
  0
LINE
 62
1
  8
0
 10
43.600057255
 20
17.1519382739
 30
0.0
 11
44.5480262319
 21
16.9622785813
 31
0.0
  0
LINE
 62
1
  8
0
 10
44.5566443167
 20
16.9606328705
 30
0.0
 11
45.5994109378
 21
16.7709731694
 31
0.0
  0
ARC
 62
1
  8
0
 10
45.6888836912
 20
17.2629026627
 30
0.0
 40
0.5
 50
-100.308344586
 51
79.6916554145
  0
LINE
 62
1
  8
0
 10
45.7783564445
 20
17.754832156
 30
0.0
 11
44.7355898234
 21
17.9444918572
 31
0.0
  0
ARC
 62
1
  8
0
 10
44.64611707
 20
17.4525623639
 30
0.0
 40
0.5
 50
79.6916554145
 51
-100.308344586
  0
LINE
 62
1
  8
0
 10
44.5566443167
 20
16.9606328705
 30
0.0
 11
45.5994109378
 21
16.7709731694
 31
0.0
  0
LINE
 62
1
  8
0
 10
45.6268484092
 20
16.766765964
 30
0.0
 11
46.3852240023
 21
16.6719412033
 31
0.0
  0
ARC
 62
1
  8
0
 10
46.4472592843
 20
17.168077902
 30
0.0
 40
0.5
 50
-97.1270851955
 51
82.8729148045
  0
LINE
 62
1
  8
0
 10
46.5092945662
 20
17.6642146007
 30
0.0
 11
45.7509189731
 21
17.7590393614
 31
0.0
  0
ARC
 62
1
  8
0
 10
45.6888836912
 20
17.2629026627
 30
0.0
 40
0.5
 50
82.8729148045
 51
-97.1270851955
  0
LINE
 62
1
  8
0
 10
45.6268484092
 20
16.766765964
 30
0.0
 11
46.3852240023
 21
16.6719412033
 31
0.0
  0
LINE
 62
1
  8
0
 10
46.3387582508
 20
16.6799923298
 30
0.0
 11
47.1919315859
 21
16.4903325779
 31
0.0
  0
ARC
 62
1
  8
0
 10
47.3004326193
 20
16.97841815
 30
0.0
 40
0.5
 50
-102.533010724
 51
77.4669892756
  0
LINE
 62
1
  8
0
 10
47.4089336527
 20
17.4665037222
 30
0.0
 11
46.5557603177
 21
17.6561634741
 31
0.0
  0
ARC
 62
1
  8
0
 10
46.4472592843
 20
17.168077902
 30
0.0
 40
0.5
 50
77.4669892756
 51
-102.533010724
  0
LINE
 62
1
  8
0
 10
46.3387582508
 20
16.6799923298
 30
0.0
 11
47.1919315859
 21
16.4903325779
 31
0.0
  0
LINE
 62
1
  8
0
 10
47.2506610412
 20
16.4809015272
 30
0.0
 11
48.1986300053
 21
16.3860666832
 31
0.0
  0
ARC
 62
1
  8
0
 10
48.2484015834
 20
16.883583306
 30
0.0
 40
0.5
 50
-95.7128639952
 51
84.2871360048
  0
LINE
 62
1
  8
0
 10
48.2981731615
 20
17.3810999289
 30
0.0
 11
47.3502041974
 21
17.4759347729
 31
0.0
  0
ARC
 62
1
  8
0
 10
47.3004326193
 20
16.97841815
 30
0.0
 40
0.5
 50
84.2871360048
 51
-95.7128639952
  0
LINE
 62
1
  8
0
 10
47.2506610412
 20
16.4809015272
 30
0.0
 11
48.1986300053
 21
16.3860666832
 31
0.0
  0
LINE
 62
1
  8
0
 10
48.1931698474
 20
16.3866432137
 30
0.0
 11
49.0463431505
 21
16.2918184182
 31
0.0
  0
ARC
 62
1
  8
0
 10
49.1015748865
 20
16.7887585105
 30
0.0
 40
0.5
 50
-96.3420333803
 51
83.6579666197
  0
LINE
 62
1
  8
0
 10
49.1568066225
 20
17.2856986028
 30
0.0
 11
48.3036333194
 21
17.3805233983
 31
0.0
  0
ARC
 62
1
  8
0
 10
48.2484015834
 20
16.883583306
 30
0.0
 40
0.5
 50
83.6579666197
 51
-96.3420333803
  0
LINE
 62
1
  8
0
 10
48.1931698474
 20
16.3866432137
 30
0.0
 11
49.0463431505
 21
16.2918184182
 31
0.0
  0
LINE
 62
1
  8
0
 10
49.1776292785
 20
16.2945766316
 30
0.0
 11
50.4099893348
 21
16.4842363476
 31
0.0
  0
ARC
 62
1
  8
0
 10
50.3339349428
 20
16.9784182265
 30
0.0
 40
0.5
 50
-81.2508464931
 51
98.7491535069
  0
LINE
 62
1
  8
0
 10
50.2578805507
 20
17.4726001054
 30
0.0
 11
49.0255204945
 21
17.2829403894
 31
0.0
  0
ARC
 62
1
  8
0
 10
49.1015748865
 20
16.7887585105
 30
0.0
 40
0.5
 50
98.7491535069
 51
-81.2508464931
  0
LINE
 62
1
  8
0
 10
49.1776292785
 20
16.2945766316
 30
0.0
 11
50.4099893348
 21
16.4842363476
 31
0.0
  0
LINE
 62
1
  8
0
 10
50.3754697966
 20
16.480146357
 30
0.0
 11
51.5130331303
 21
16.5749711498
 31
0.0
  0
ARC
 62
1
  8
0
 10
51.4714982764
 20
17.0732430193
 30
0.0
 40
0.5
 50
-85.2349653462
 51
94.7650346538
  0
LINE
 62
1
  8
0
 10
51.4299634226
 20
17.5715148888
 30
0.0
 11
50.2924000889
 21
17.476690096
 31
0.0
  0
ARC
 62
1
  8
0
 10
50.3339349428
 20
16.9784182265
 30
0.0
 40
0.5
 50
94.7650346538
 51
-85.2349653462
  0
LINE
 62
1
  8
0
 10
50.3754697966
 20
16.480146357
 30
0.0
 11
51.5130331303
 21
16.5749711498
 31
0.0
  0
LINE
 62
1
  8
0
 10
51.5335400576
 20
16.5771071333
 30
0.0
 11
52.2919156658
 21
16.6719419857
 31
0.0
  0
ARC
 62
1
  8
0
 10
52.2298738846
 20
17.1680778717
 30
0.0
 40
0.5
 50
-82.8721642484
 51
97.1278357516
  0
LINE
 62
1
  8
0
 10
52.1678321035
 20
17.6642137577
 30
0.0
 11
51.4094564953
 21
17.5693789053
 31
0.0
  0
ARC
 62
1
  8
0
 10
51.4714982764
 20
17.0732430193
 30
0.0
 40
0.5
 50
97.1278357516
 51
-82.8721642484
  0
LINE
 62
1
  8
0
 10
51.5335400576
 20
16.5771071333
 30
0.0
 11
52.2919156658
 21
16.6719419857
 31
0.0
  0
LINE
 62
1
  8
0
 10
52.2919092043
 20
16.6719411777
 30
0.0
 11
53.0502847829
 21
16.7667659952
 31
0.0
  0
ARC
 62
1
  8
0
 10
52.9882494632
 20
17.2629026892
 30
0.0
 40
0.5
 50
-82.8729104423
 51
97.1270895577
  0
LINE
 62
1
  8
0
 10
52.9262141435
 20
17.7590393832
 30
0.0
 11
52.1678385649
 21
17.6642145657
 31
0.0
  0
ARC
 62
1
  8
0
 10
52.2298738846
 20
17.1680778717
 30
0.0
 40
0.5
 50
97.1270895577
 51
-82.8729104423
  0
LINE
 62
1
  8
0
 10
52.2919092043
 20
16.6719411777
 30
0.0
 11
53.0502847829
 21
16.7667659952
 31
0.0
  0
LINE
 62
1
  8
0
 10
52.9882494557
 20
16.7629026892
 30
0.0
 11
53.9362194724
 21
16.762902675
 31
0.0
  0
ARC
 62
1
  8
0
 10
53.9362194799
 20
17.262902675
 30
0.0
 40
0.5
 50
-90.0000008613
 51
89.9999991387
  0
LINE
 62
1
  8
0
 10
53.9362194874
 20
17.762902675
 30
0.0
 11
52.9882494707
 21
17.7629026892
 31
0.0
  0
ARC
 62
1
  8
0
 10
52.9882494632
 20
17.2629026892
 30
0.0
 40
0.5
 50
89.9999991387
 51
-90.0000008613
  0
LINE
 62
1
  8
0
 10
52.9882494557
 20
16.7629026892
 30
0.0
 11
53.9362194724
 21
16.762902675
 31
0.0
  0
LINE
 62
1
  8
0
 10
54.0447205837
 20
16.7748171184
 30
0.0
 11
54.8978928226
 21
16.9644767557
 31
0.0
  0
ARC
 62
1
  8
0
 10
54.7893917189
 20
17.4525623122
 30
0.0
 40
0.5
 50
-77.4669810219
 51
102.533018978
  0
LINE
 62
1
  8
0
 10
54.6808906152
 20
17.9406478688
 30
0.0
 11
53.8277183762
 21
17.7509882315
 31
0.0
  0
ARC
 62
1
  8
0
 10
53.9362194799
 20
17.262902675
 30
0.0
 40
0.5
 50
102.533018978
 51
-77.4669810219
  0
LINE
 62
1
  8
0
 10
54.0447205837
 20
16.7748171184
 30
0.0
 11
54.8978928226
 21
16.9644767557
 31
0.0
  0
LINE
 62
1
  8
0
 10
54.8716203624
 20
16.9593702095
 30
0.0
 11
56.5779658947
 21
17.2438647861
 31
0.0
  0
ARC
 62
1
  8
0
 10
56.4957372512
 20
17.7370568888
 30
0.0
 40
0.5
 50
-80.5342913764
 51
99.4657086236
  0
LINE
 62
1
  8
0
 10
56.4135086078
 20
18.2302489915
 30
0.0
 11
54.7071630754
 21
17.945754415
 31
0.0
  0
ARC
 62
1
  8
0
 10
54.7893917189
 20
17.4525623122
 30
0.0
 40
0.5
 50
99.4657086236
 51
-80.5342913764
  0
LINE
 62
1
  8
0
 10
54.8716203624
 20
16.9593702095
 30
0.0
 11
56.5779658947
 21
17.2438647861
 31
0.0
  0
LINE
 62
1
  8
0
 10
56.6246102788
 20
17.2539505415
 30
0.0
 11
58.0465648086
 21
17.6332698908
 31
0.0
  0
ARC
 62
1
  8
0
 10
57.9176917811
 20
18.116376238
 30
0.0
 40
0.5
 50
-75.0636370462
 51
104.936362954
  0
LINE
 62
1
  8
0
 10
57.7888187535
 20
18.5994825853
 30
0.0
 11
56.3668642237
 21
18.2201632361
 31
0.0
  0
ARC
 62
1
  8
0
 10
56.4957372512
 20
17.7370568888
 30
0.0
 40
0.5
 50
104.936362954
 51
-75.0636370462
  0
LINE
 62
1
  8
0
 10
56.6246102788
 20
17.2539505415
 30
0.0
 11
58.0465648086
 21
17.6332698908
 31
0.0
  0
LINE
 62
1
  8
0
 10
58.1951087158
 20
17.7003956564
 30
0.0
 11
58.7638898298
 21
18.079715077
 31
0.0
  0
ARC
 62
1
  8
0
 10
58.4864728951
 20
18.4956956586
 30
0.0
 40
0.5
 50
-56.3007271094
 51
123.699272891
  0
LINE
 62
1
  8
0
 10
58.2090559603
 20
18.9116762403
 30
0.0
 11
57.6402748463
 21
18.5323568197
 31
0.0
  0
ARC
 62
1
  8
0
 10
57.9176917811
 20
18.116376238
 30
0.0
 40
0.5
 50
123.699272891
 51
-56.3007271094
  0
LINE
 62
1
  8
0
 10
58.1951087158
 20
17.7003956564
 30
0.0
 11
58.7638898298
 21
18.079715077
 31
0.0
  0
LINE
 62
1
  8
0
 10
58.8400888632
 20
18.1422048566
 30
0.0
 11
59.5036677643
 21
18.8060187216
 31
0.0
  0
ARC
 62
1
  8
0
 10
59.1500517962
 20
19.1595095236
 30
0.0
 40
0.5
 50
-44.9898579856
 51
135.010142014
  0
LINE
 62
1
  8
0
 10
58.7964358281
 20
19.5130003256
 30
0.0
 11
58.132856927
 21
18.8491864606
 31
0.0
  0
ARC
 62
1
  8
0
 10
58.4864728951
 20
18.4956956586
 30
0.0
 40
0.5
 50
135.010142014
 51
-44.9898579856
  0
LINE
 62
1
  8
0
 10
58.8400888632
 20
18.1422048566
 30
0.0
 11
59.5036677643
 21
18.8060187216
 31
0.0
  0
LINE
 62
1
  8
0
 10
59.5342171263
 20
18.8394829636
 30
0.0
 11
60.0082016126
 21
19.4084620089
 31
0.0
  0
ARC
 62
1
  8
0
 10
59.6240362825
 20
19.728488569
 30
0.0
 40
0.5
 50
-39.7957806463
 51
140.204219354
  0
LINE
 62
1
  8
0
 10
59.2398709524
 20
20.048515129
 30
0.0
 11
58.7658864661
 21
19.4795360837
 31
0.0
  0
ARC
 62
1
  8
0
 10
59.1500517962
 20
19.1595095236
 30
0.0
 40
0.5
 50
140.204219354
 51
-39.7957806463
  0
LINE
 62
1
  8
0
 10
59.5342171263
 20
18.8394829636
 30
0.0
 11
60.0082016126
 21
19.4084620089
 31
0.0
  0
LINE
 62
1
  8
0
 10
60.0037190025
 20
19.4031563816
 30
0.0
 11
60.572501165
 21
20.0669602318
 31
0.0
  0
ARC
 62
1
  8
0
 10
60.192818445
 20
20.3922924191
 30
0.0
 40
0.5
 50
-40.5917116287
 51
139.408288371
  0
LINE
 62
1
  8
0
 10
59.813135725
 20
20.7176246065
 30
0.0
 11
59.2443535625
 21
20.0538207563
 31
0.0
  0
ARC
 62
1
  8
0
 10
59.6240362825
 20
19.728488569
 30
0.0
 40
0.5
 50
139.408288371
 51
-40.5917116287
  0
LINE
 62
1
  8
0
 10
60.0037190025
 20
19.4031563816
 30
0.0
 11
60.572501165
 21
20.0669602318
 31
0.0
  0
LINE
 62
1
  8
0
 10
60.5928682607
 20
20.0923588515
 30
0.0
 11
61.1616505416
 21
20.8509976675
 31
0.0
  0
ARC
 62
1
  8
0
 10
60.7616007259
 20
21.1509312352
 30
0.0
 40
0.5
 50
-36.8603825014
 51
143.139617499
  0
LINE
 62
1
  8
0
 10
60.3615509103
 20
21.4508648028
 30
0.0
 11
59.7927686294
 21
20.6922259868
 31
0.0
  0
ARC
 62
1
  8
0
 10
60.192818445
 20
20.3922924191
 30
0.0
 40
0.5
 50
143.139617499
 51
-36.8603825014
  0
LINE
 62
1
  8
0
 10
60.5928682607
 20
20.0923588515
 30
0.0
 11
61.1616505416
 21
20.8509976675
 31
0.0
  0
LINE
 62
1
  8
0
 10
61.1685162454
 20
20.8603804479
 30
0.0
 11
61.6425007077
 21
21.5241942874
 31
0.0
  0
ARC
 62
1
  8
0
 10
61.2355851882
 20
21.8147450747
 30
0.0
 40
0.5
 50
-35.5280588811
 51
144.471941119
  0
LINE
 62
1
  8
0
 10
60.8286696687
 20
22.105295862
 30
0.0
 11
60.3546852064
 21
21.4414820225
 31
0.0
  0
ARC
 62
1
  8
0
 10
60.7616007259
 20
21.1509312352
 30
0.0
 40
0.5
 50
144.471941119
 51
-35.5280588811
  0
LINE
 62
1
  8
0
 10
61.1685162454
 20
20.8603804479
 30
0.0
 11
61.6425007077
 21
21.5241942874
 31
0.0
  0
LINE
 62
1
  8
0
 10
61.6516556058
 20
21.5374628942
 30
0.0
 11
62.2204368145
 21
22.3909365452
 31
0.0
  0
ARC
 62
1
  8
0
 10
61.8043663969
 20
22.6682187258
 30
0.0
 40
0.5
 50
-33.6807142962
 51
146.319285704
  0
LINE
 62
1
  8
0
 10
61.3882959794
 20
22.9455009063
 30
0.0
 11
60.8195147707
 21
22.0920272553
 31
0.0
  0
ARC
 62
1
  8
0
 10
61.2355851882
 20
21.8147450747
 30
0.0
 40
0.5
 50
146.319285704
 51
-33.6807142962
  0
LINE
 62
1
  8
0
 10
61.6516556058
 20
21.5374628942
 30
0.0
 11
62.2204368145
 21
22.3909365452
 31
0.0
  0
LINE
 62
1
  8
0
 10
62.2112795831
 20
22.3776646707
 30
0.0
 11
62.6852650012
 21
23.0414685768
 31
0.0
  0
ARC
 62
1
  8
0
 10
62.2783518151
 20
23.3320226319
 30
0.0
 40
0.5
 50
-35.528519002
 51
144.471480998
  0
LINE
 62
1
  8
0
 10
61.8714386289
 20
23.622576687
 30
0.0
 11
61.3974532108
 21
22.9587727809
 31
0.0
  0
ARC
 62
1
  8
0
 10
61.8043663969
 20
22.6682187258
 30
0.0
 40
0.5
 50
144.471480998
 51
-35.528519002
  0
LINE
 62
1
  8
0
 10
62.2112795831
 20
22.3776646707
 30
0.0
 11
62.6852650012
 21
23.0414685768
 31
0.0
  0
LINE
 62
1
  8
0
 10
62.6852673027
 20
23.0414718
 30
0.0
 11
63.1592518634
 21
23.7052856235
 31
0.0
  0
ARC
 62
1
  8
0
 10
62.7523363757
 20
23.9958364554
 30
0.0
 40
0.5
 50
-35.5280651602
 51
144.47193484
  0
LINE
 62
1
  8
0
 10
62.3454208881
 20
24.2863872873
 30
0.0
 11
61.8714363274
 21
23.6225734638
 31
0.0
  0
ARC
 62
1
  8
0
 10
62.2783518151
 20
23.3320226319
 30
0.0
 40
0.5
 50
144.47193484
 51
-35.5280651602
  0
LINE
 62
1
  8
0
 10
62.6852673027
 20
23.0414718
 30
0.0
 11
63.1592518634
 21
23.7052856235
 31
0.0
  0
LINE
 62
1
  8
0
 10
63.1864958456
 20
23.7478333208
 30
0.0
 11
63.565683596
 21
24.4116473205
 31
0.0
  0
ARC
 62
1
  8
0
 10
63.1315241262
 20
24.6596504551
 30
0.0
 40
0.5
 50
-29.736126777
 51
150.263873223
  0
LINE
 62
1
  8
0
 10
62.6973646564
 20
24.9076535897
 30
0.0
 11
62.3181769059
 21
24.24383959
 31
0.0
  0
ARC
 62
1
  8
0
 10
62.7523363757
 20
23.9958364554
 30
0.0
 40
0.5
 50
150.263873223
 51
-29.736126777
  0
LINE
 62
1
  8
0
 10
63.1864958456
 20
23.7478333208
 30
0.0
 11
63.565683596
 21
24.4116473205
 31
0.0
  0
LINE
 62
1
  8
0
 10
63.5156894485
 20
24.3396238856
 30
0.0
 11
63.9896738931
 21
24.9086028525
 31
0.0
  0
ARC
 62
1
  8
0
 10
63.6055085708
 20
25.228629422
 30
0.0
 40
0.5
 50
-39.795782054
 51
140.204217946
  0
LINE
 62
1
  8
0
 10
63.2213432486
 20
25.5486559915
 30
0.0
 11
62.747358804
 21
24.9796770246
 31
0.0
  0
ARC
 62
1
  8
0
 10
63.1315241262
 20
24.6596504551
 30
0.0
 40
0.5
 50
140.204217946
 51
-39.795782054
  0
LINE
 62
1
  8
0
 10
63.5156894485
 20
24.3396238856
 30
0.0
 11
63.9896738931
 21
24.9086028525
 31
0.0
  0
LINE
 62
1
  8
0
 10
64.0697691117
 20
25.042989582
 30
0.0
 11
64.4489569845
 21
25.9912880016
 31
0.0
  0
ARC
 62
1
  8
0
 10
63.9846964436
 20
26.1769278416
 30
0.0
 40
0.5
 50
-21.7945601297
 51
158.20543987
  0
LINE
 62
1
  8
0
 10
63.5204359028
 20
26.3625676816
 30
0.0
 11
63.14124803
 21
25.414269262
 31
0.0
  0
ARC
 62
1
  8
0
 10
63.6055085708
 20
25.228629422
 30
0.0
 40
0.5
 50
158.20543987
 51
-21.7945601297
  0
LINE
 62
1
  8
0
 10
64.0697691117
 20
25.042989582
 30
0.0
 11
64.4489569845
 21
25.9912880016
 31
0.0
  0
LINE
 62
1
  8
0
 10
64.4188542833
 20
25.9289218532
 30
0.0
 11
64.7980420501
 21
26.5927257507
 31
0.0
  0
ARC
 62
1
  8
0
 10
64.3638842104
 20
26.8407317391
 30
0.0
 40
0.5
 50
-29.7365033877
 51
150.263496612
  0
LINE
 62
1
  8
0
 10
63.9297263708
 20
27.0887377274
 30
0.0
 11
63.550538604
 21
26.42493383
 31
0.0
  0
ARC
 62
1
  8
0
 10
63.9846964436
 20
26.1769278416
 30
0.0
 40
0.5
 50
150.263496612
 51
-29.7365033877
  0
LINE
 62
1
  8
0
 10
64.4188542833
 20
25.9289218532
 30
0.0
 11
64.7980420501
 21
26.5927257507
 31
0.0
  0
LINE
 62
1
  8
0
 10
64.8638842104
 20
26.8407317495
 30
0.0
 11
64.8638841866
 21
27.9786998366
 31
0.0
  0
ARC
 62
1
  8
0
 10
64.3638841866
 20
27.9786998261
 30
0.0
 40
0.5
 50
1.19918731705e-06
 51
180.000001199
  0
LINE
 62
1
  8
0
 10
63.8638841866
 20
27.9786998156
 30
0.0
 11
63.8638842104
 21
26.8407317286
 31
0.0
  0
ARC
 62
1
  8
0
 10
64.3638842104
 20
26.8407317391
 30
0.0
 40
0.5
 50
180.000001199
 51
1.19918731705e-06
  0
LINE
 62
1
  8
0
 10
64.8638842104
 20
26.8407317495
 30
0.0
 11
64.8638841866
 21
27.9786998366
 31
0.0
  0
LINE
 62
1
  8
0
 10
64.8382422943
 20
28.1367643245
 30
0.0
 11
64.4590545492
 21
29.2747224562
 31
0.0
  0
ARC
 62
1
  8
0
 10
63.9846964415
 20
29.1166579578
 30
0.0
 40
0.5
 50
18.4289837502
 51
198.42898375
  0
LINE
 62
1
  8
0
 10
63.5103383338
 20
28.9585934594
 30
0.0
 11
63.8895260789
 21
27.8206353277
 31
0.0
  0
ARC
 62
1
  8
0
 10
64.3638841866
 20
27.9786998261
 30
0.0
 40
0.5
 50
198.42898375
 51
18.4289837502
  0
LINE
 62
1
  8
0
 10
64.8382422943
 20
28.1367643245
 30
0.0
 11
64.4590545492
 21
29.2747224562
 31
0.0
  0
LINE
 62
1
  8
0
 10
64.4727978657
 20
29.2250876572
 30
0.0
 11
64.2832044792
 21
30.0785512606
 31
0.0
  0
ARC
 62
1
  8
0
 10
63.795103055
 20
29.9701215612
 30
0.0
 40
0.5
 50
12.5246370435
 51
192.524637044
  0
LINE
 62
1
  8
0
 10
63.3070016308
 20
29.8616918618
 30
0.0
 11
63.4965950173
 21
29.0082282584
 31
0.0
  0
ARC
 62
1
  8
0
 10
63.9846964415
 20
29.1166579578
 30
0.0
 40
0.5
 50
192.524637044
 51
12.5246370435
  0
LINE
 62
1
  8
0
 10
64.4727978657
 20
29.2250876572
 30
0.0
 11
64.2832044792
 21
30.0785512606
 31
0.0
  0
LINE
 62
1
  8
0
 10
64.1487197502
 20
29.6166314865
 30
0.0
 11
64.6227041969
 21
30.090785715
 31
0.0
  0
ARC
 62
1
  8
0
 10
64.2690875017
 20
30.4442757897
 30
0.0
 40
0.5
 50
-44.989740135
 51
135.010259865
  0
LINE
 62
1
  8
0
 10
63.9154708066
 20
30.7977658644
 30
0.0
 11
63.4414863598
 21
30.3236116359
 31
0.0
  0
ARC
 62
1
  8
0
 10
63.795103055
 20
29.9701215612
 30
0.0
 40
0.5
 50
135.010259865
 51
-44.989740135
  0
LINE
 62
1
  8
0
 10
64.1487197502
 20
29.6166314865
 30
0.0
 11
64.6227041969
 21
30.090785715
 31
0.0
  0
LINE
 62
1
  8
0
 10
64.6851570369
 20
30.1669922852
 30
0.0
 11
65.0643448325
 21
30.7359712805
 31
0.0
  0
ARC
 62
1
  8
0
 10
64.6482752973
 20
31.0132547851
 30
0.0
 40
0.5
 50
-33.6808966185
 51
146.319103382
  0
LINE
 62
1
  8
0
 10
64.2322057621
 20
31.2905382896
 30
0.0
 11
63.8530179665
 21
30.7215592942
 31
0.0
  0
ARC
 62
1
  8
0
 10
64.2690875017
 20
30.4442757897
 30
0.0
 40
0.5
 50
146.319103382
 51
-33.6808966185
  0
LINE
 62
1
  8
0
 10
64.6851570369
 20
30.1669922852
 30
0.0
 11
65.0643448325
 21
30.7359712805
 31
0.0
  0
LINE
 62
1
  8
0
 10
65.1333563708
 20
30.8920262732
 30
0.0
 11
65.3229507574
 21
31.6506650387
 31
0.0
  0
ARC
 62
1
  8
0
 10
64.8378696839
 20
31.7718935506
 30
0.0
 40
0.5
 50
-14.0316013905
 51
165.968398609
  0
LINE
 62
1
  8
0
 10
64.3527886103
 20
31.8931220625
 30
0.0
 11
64.1631942237
 21
31.1344832969
 31
0.0
  0
ARC
 62
1
  8
0
 10
64.6482752973
 20
31.0132547851
 30
0.0
 40
0.5
 50
165.968398609
 51
-14.0316013905
  0
LINE
 62
1
  8
0
 10
65.1333563708
 20
30.8920262732
 30
0.0
 11
65.3229507574
 21
31.6506650387
 31
0.0
  0
LINE
 62
1
  8
0
 10
65.3122276426
 20
31.929958496
 30
0.0
 11
65.1226331974
 21
32.4989374926
 31
0.0
  0
ARC
 62
1
  8
0
 10
64.6482752387
 20
32.3408725472
 30
0.0
 40
0.5
 50
18.4290377455
 51
198.429037745
  0
LINE
 62
1
  8
0
 10
64.1739172799
 20
32.1828076018
 30
0.0
 11
64.3635117251
 21
31.6138286052
 31
0.0
  0
ARC
 62
1
  8
0
 10
64.8378696839
 20
31.7718935506
 30
0.0
 40
0.5
 50
198.429037745
 51
18.4290377455
  0
LINE
 62
1
  8
0
 10
65.3122276426
 20
31.929958496
 30
0.0
 11
65.1226331974
 21
32.4989374926
 31
0.0
  0
LINE
 62
1
  8
0
 10
65.0955210471
 20
32.5644149074
 30
0.0
 11
64.7163332544
 21
33.3230637412
 31
0.0
  0
ARC
 62
1
  8
0
 10
64.269087446
 20
33.099521381
 30
0.0
 40
0.5
 50
26.5567959164
 51
206.556795916
  0
LINE
 62
1
  8
0
 10
63.8218416375
 20
32.8759790207
 30
0.0
 11
64.2010294302
 21
32.1173301869
 31
0.0
  0
ARC
 62
1
  8
0
 10
64.6482752387
 20
32.3408725472
 30
0.0
 40
0.5
 50
206.556795916
 51
26.5567959164
  0
LINE
 62
1
  8
0
 10
65.0955210471
 20
32.5644149074
 30
0.0
 11
64.7163332544
 21
33.3230637412
 31
0.0
  0
LINE
 62
1
  8
0
 10
64.6532527817
 20
33.4195479343
 30
0.0
 11
64.1792683728
 21
33.9885269072
 31
0.0
  0
ARC
 62
1
  8
0
 10
63.795103037
 20
33.6685003539
 30
0.0
 40
0.5
 50
39.7957796394
 51
219.795779639
  0
LINE
 62
1
  8
0
 10
63.4109377013
 20
33.3484738006
 30
0.0
 11
63.8849221102
 21
32.7794948277
 31
0.0
  0
ARC
 62
1
  8
0
 10
64.269087446
 20
33.099521381
 30
0.0
 40
0.5
 50
219.795779639
 51
39.7957796394
  0
LINE
 62
1
  8
0
 10
64.6532527817
 20
33.4195479343
 30
0.0
 11
64.1792683728
 21
33.9885269072
 31
0.0
  0
LINE
 62
1
  8
0
 10
64.1487159874
 20
34.0219941747
 30
0.0
 11
63.674731463
 21
34.4961384346
 31
0.0
  0
ARC
 62
1
  8
0
 10
63.3211185127
 20
34.1426446138
 30
0.0
 40
0.5
 50
44.9903471157
 51
224.990347116
  0
LINE
 62
1
  8
0
 10
62.9675055624
 20
33.789150793
 30
0.0
 11
63.4414900867
 21
33.3150065331
 31
0.0
  0
ARC
 62
1
  8
0
 10
63.795103037
 20
33.6685003539
 30
0.0
 40
0.5
 50
224.990347116
 51
44.9903471157
  0
LINE
 62
1
  8
0
 10
64.1487159874
 20
34.0219941747
 30
0.0
 11
63.674731463
 21
34.4961384346
 31
0.0
  0
LINE
 62
1
  8
0
 10
63.7116069661
 20
34.4549245648
 30
0.0
 11
63.3324181497
 21
34.929078778
 31
0.0
  0
ARC
 62
1
  8
0
 10
62.9419296963
 20
34.6167988271
 30
0.0
 40
0.5
 50
38.6498927122
 51
218.649892712
  0
LINE
 62
1
  8
0
 10
62.5514412429
 20
34.3045188761
 30
0.0
 11
62.9306300593
 21
33.8303646629
 31
0.0
  0
ARC
 62
1
  8
0
 10
63.3211185127
 20
34.1426446138
 30
0.0
 40
0.5
 50
218.649892712
 51
38.6498927122
  0
LINE
 62
1
  8
0
 10
63.7116069661
 20
34.4549245648
 30
0.0
 11
63.3324181497
 21
34.929078778
 31
0.0
  0
LINE
 62
1
  8
0
 10
63.3760875535
 20
34.8648047847
 30
0.0
 11
62.9968998383
 21
35.5286087009
 31
0.0
  0
ARC
 62
1
  8
0
 10
62.5627419811
 20
35.2806027432
 30
0.0
 40
0.5
 50
29.736499335
 51
209.736499335
  0
LINE
 62
1
  8
0
 10
62.1285841239
 20
35.0325967856
 30
0.0
 11
62.5077718391
 21
34.3687928694
 31
0.0
  0
ARC
 62
1
  8
0
 10
62.9419296963
 20
34.6167988271
 30
0.0
 40
0.5
 50
209.736499335
 51
29.736499335
  0
LINE
 62
1
  8
0
 10
63.3760875535
 20
34.8648047847
 30
0.0
 11
62.9968998383
 21
35.5286087009
 31
0.0
  0
LINE
 62
1
  8
0
 10
62.91635862
 20
35.6340928741
 30
0.0
 11
62.4423741244
 21
36.1082470006
 31
0.0
  0
ARC
 62
1
  8
0
 10
62.0887574855
 20
35.7547568698
 30
0.0
 40
0.5
 50
44.9897492444
 51
224.989749244
  0
LINE
 62
1
  8
0
 10
61.7351408465
 20
35.4012667389
 30
0.0
 11
62.2091253421
 21
34.9271126123
 31
0.0
  0
ARC
 62
1
  8
0
 10
62.5627419811
 20
35.2806027432
 30
0.0
 40
0.5
 50
224.989749244
 51
44.9897492444
  0
LINE
 62
1
  8
0
 10
62.91635862
 20
35.6340928741
 30
0.0
 11
62.4423741244
 21
36.1082470006
 31
0.0
  0
LINE
 62
1
  8
0
 10
62.5048270176
 20
36.0320403789
 30
0.0
 11
62.1256391623
 21
36.6010194501
 31
0.0
  0
ARC
 62
1
  8
0
 10
61.7095696302
 20
36.323735941
 30
0.0
 40
0.5
 50
33.680897256
 51
213.680897256
  0
LINE
 62
1
  8
0
 10
61.2935000981
 20
36.0464524318
 30
0.0
 11
61.6726879534
 21
35.4774733606
 31
0.0
  0
ARC
 62
1
  8
0
 10
62.0887574855
 20
35.7547568698
 30
0.0
 40
0.5
 50
213.680897256
 51
33.680897256
  0
LINE
 62
1
  8
0
 10
62.5048270176
 20
36.0320403789
 30
0.0
 11
62.1256391623
 21
36.6010194501
 31
0.0
  0
LINE
 62
1
  8
0
 10
62.0350303524
 20
36.7033084878
 30
0.0
 11
61.3714515045
 21
37.272287601
 31
0.0
  0
ARC
 62
1
  8
0
 10
61.0459907823
 20
36.8927150541
 30
0.0
 40
0.5
 50
49.3888890931
 51
229.388889093
  0
LINE
 62
1
  8
0
 10
60.7205300601
 20
36.5131425073
 30
0.0
 11
61.3841089081
 21
35.9441633942
 31
0.0
  0
ARC
 62
1
  8
0
 10
61.7095696302
 20
36.323735941
 30
0.0
 40
0.5
 50
229.388889093
 51
49.3888890931
  0
LINE
 62
1
  8
0
 10
62.0350303524
 20
36.7033084878
 30
0.0
 11
61.3714515045
 21
37.272287601
 31
0.0
  0
LINE
 62
1
  8
0
 10
61.3530289269
 20
37.2873383907
 30
0.0
 11
60.4998566414
 21
37.9511522388
 31
0.0
  0
ARC
 62
1
  8
0
 10
60.1928184968
 20
37.5565289023
 30
0.0
 40
0.5
 50
52.1151675558
 51
232.115167556
  0
LINE
 62
1
  8
0
 10
59.8857803521
 20
37.1619055657
 30
0.0
 11
60.7389526377
 21
36.4980917176
 31
0.0
  0
ARC
 62
1
  8
0
 10
61.0459907823
 20
36.8927150541
 30
0.0
 40
0.5
 50
232.115167556
 51
52.1151675558
  0
LINE
 62
1
  8
0
 10
61.3530289269
 20
37.2873383907
 30
0.0
 11
60.4998566414
 21
37.9511522388
 31
0.0
  0
LINE
 62
1
  8
0
 10
60.5464330695
 20
37.9100211001
 30
0.0
 11
59.97765086
 21
38.4790002155
 31
0.0
  0
ARC
 62
1
  8
0
 10
59.6240362872
 20
38.1255080177
 30
0.0
 40
0.5
 50
44.9900841473
 51
224.990084147
  0
LINE
 62
1
  8
0
 10
59.2704217144
 20
37.7720158198
 30
0.0
 11
59.839203924
 21
37.2030367044
 31
0.0
  0
ARC
 62
1
  8
0
 10
60.1928184968
 20
37.5565289023
 30
0.0
 40
0.5
 50
224.990084147
 51
44.9900841473
  0
LINE
 62
1
  8
0
 10
60.5464330695
 20
37.9100211001
 30
0.0
 11
59.97765086
 21
38.4790002155
 31
0.0
  0
LINE
 62
1
  8
0
 10
59.9776529704
 20
38.4789981043
 30
0.0
 11
59.503668491
 21
38.9531523334
 31
0.0
  0
ARC
 62
1
  8
0
 10
59.1500518078
 20
38.5996622468
 30
0.0
 40
0.5
 50
44.989742073
 51
224.989742073
  0
LINE
 62
1
  8
0
 10
58.7964351245
 20
38.2461721601
 30
0.0
 11
59.270419604
 21
37.772017931
 31
0.0
  0
ARC
 62
1
  8
0
 10
59.6240362872
 20
38.1255080177
 30
0.0
 40
0.5
 50
224.989742073
 51
44.989742073
  0
LINE
 62
1
  8
0
 10
59.9776529704
 20
38.4789981043
 30
0.0
 11
59.503668491
 21
38.9531523334
 31
0.0
  0
LINE
 62
1
  8
0
 10
59.4702076715
 20
38.9837198244
 30
0.0
 11
58.9014264787
 21
39.4578639233
 31
0.0
  0
ARC
 62
1
  8
0
 10
58.581270615
 20
39.0738063457
 30
0.0
 40
0.5
 50
50.1849318375
 51
230.184931837
  0
LINE
 62
1
  8
0
 10
58.2611147512
 20
38.6897487681
 30
0.0
 11
58.829895944
 21
38.2156046692
 31
0.0
  0
ARC
 62
1
  8
0
 10
59.1500518078
 20
38.5996622468
 30
0.0
 40
0.5
 50
230.184931837
 51
50.1849318375
  0
LINE
 62
1
  8
0
 10
59.4702076715
 20
38.9837198244
 30
0.0
 11
58.9014264787
 21
39.4578639233
 31
0.0
  0
LINE
 62
1
  8
0
 10
58.9717591169
 20
39.3860862359
 30
0.0
 11
58.5925703779
 21
39.8602405035
 31
0.0
  0
ARC
 62
1
  8
0
 10
58.202081876
 20
39.5479606132
 30
0.0
 40
0.5
 50
38.649883805
 51
218.649883805
  0
LINE
 62
1
  8
0
 10
57.811593374
 20
39.235680723
 30
0.0
 11
58.1907821131
 21
38.7615264554
 31
0.0
  0
ARC
 62
1
  8
0
 10
58.581270615
 20
39.0738063457
 30
0.0
 40
0.5
 50
218.649883805
 51
38.649883805
  0
LINE
 62
1
  8
0
 10
58.9717591169
 20
39.3860862359
 30
0.0
 11
58.5925703779
 21
39.8602405035
 31
0.0
  0
LINE
 62
1
  8
0
 10
58.4927659205
 20
39.9547809499
 30
0.0
 11
57.8291879988
 21
40.4289251771
 31
0.0
  0
ARC
 62
1
  8
0
 10
57.5385039543
 20
40.0221048404
 30
0.0
 40
0.5
 50
54.4531756323
 51
234.453175632
  0
LINE
 62
1
  8
0
 10
57.2478199098
 20
39.6152845038
 30
0.0
 11
57.9113978315
 21
39.1411402766
 31
0.0
  0
ARC
 62
1
  8
0
 10
58.202081876
 20
39.5479606132
 30
0.0
 40
0.5
 50
234.453175632
 51
54.4531756323
  0
LINE
 62
1
  8
0
 10
58.4927659205
 20
39.9547809499
 30
0.0
 11
57.8291879988
 21
40.4289251771
 31
0.0
  0
LINE
 62
1
  8
0
 10
57.850917228
 20
40.4124866361
 30
0.0
 11
57.3769317642
 21
40.7918059387
 31
0.0
  0
ARC
 62
1
  8
0
 10
57.0645184905
 20
40.401424143
 30
0.0
 40
0.5
 50
51.3305423675
 51
231.330542368
  0
LINE
 62
1
  8
0
 10
56.7521052167
 20
40.0110423473
 30
0.0
 11
57.2260906805
 21
39.6317230448
 31
0.0
  0
ARC
 62
1
  8
0
 10
57.5385039543
 20
40.0221048404
 30
0.0
 40
0.5
 50
231.330542368
 51
51.3305423675
  0
LINE
 62
1
  8
0
 10
57.850917228
 20
40.4124866361
 30
0.0
 11
57.3769317642
 21
40.7918059387
 31
0.0
  0
LINE
 62
1
  8
0
 10
57.4442039342
 20
40.7267531516
 30
0.0
 11
56.8754227353
 21
41.390567125
 31
0.0
  0
ARC
 62
1
  8
0
 10
56.4957372916
 20
41.0652381164
 30
0.0
 40
0.5
 50
40.5912319375
 51
220.591231937
  0
LINE
 62
1
  8
0
 10
56.1160518479
 20
40.7399091078
 30
0.0
 11
56.6848330467
 21
40.0760951344
 31
0.0
  0
ARC
 62
1
  8
0
 10
57.0645184905
 20
40.401424143
 30
0.0
 40
0.5
 50
220.591231937
 51
40.5912319375
  0
LINE
 62
1
  8
0
 10
57.4442039342
 20
40.7267531516
 30
0.0
 11
56.8754227353
 21
41.390567125
 31
0.0
  0
LINE
 62
1
  8
0
 10
56.9053999119
 20
41.3519026199
 30
0.0
 11
56.2418209695
 21
42.3002010141
 31
0.0
  0
ARC
 62
1
  8
0
 10
55.8321583493
 20
42.0135365106
 30
0.0
 40
0.5
 50
34.9826953199
 51
214.98269532
  0
LINE
 62
1
  8
0
 10
55.422495729
 20
41.7268720071
 30
0.0
 11
56.0860746713
 21
40.778573613
 31
0.0
  0
ARC
 62
1
  8
0
 10
56.4957372916
 20
41.0652381164
 30
0.0
 40
0.5
 50
214.98269532
 51
34.9826953199
  0
LINE
 62
1
  8
0
 10
56.9053999119
 20
41.3519026199
 30
0.0
 11
56.2418209695
 21
42.3002010141
 31
0.0
  0
ENDSEC
  0
EOF
